<svg width="160" height="161" viewBox="0 0 160 161" fill="none" xmlns="http://www.w3.org/2000/svg">
<path d="M1.14258 79.2472C2.28544 76.6757 4.57115 75.8186 7.42829 75.8186C22.8569 75.8186 38.2854 75.8186 53.9997 75.8186C56.2854 75.8186 57.9997 76.39 59.714 78.1043C65.9997 84.6757 72.5712 90.9615 78.8569 97.5329C79.1426 97.8186 79.4283 98.39 79.9997 98.9615C80.5712 98.39 81.1426 97.8186 81.4283 97.5329C87.9997 90.9615 94.5711 84.6757 100.857 78.1043C102.285 76.6757 104 76.1043 106 76.1043C122 76.1043 137.714 76.1043 153.714 76.1043C156 76.1043 158 76.6757 158.857 78.9615C159.714 81.2472 158.857 82.9615 157.143 84.6757C150 91.8186 142.857 98.9615 135.428 106.104C134.571 106.961 134.285 107.819 134.285 108.961C134.285 123.819 134.285 138.676 134.285 153.533C134.285 156.39 133.428 158.39 130.571 159.533C96.8569 159.533 63.1426 159.533 29.4283 159.533C26.5712 158.39 25.714 156.39 25.714 153.533C25.714 138.676 25.714 123.819 25.714 108.676C25.714 107.533 25.4283 106.676 24.5712 106.104C17.714 99.2472 10.8569 92.39 3.99972 85.5329C2.85686 84.39 1.99972 83.2472 1.14258 81.8186C1.14258 80.6757 1.14258 80.1043 1.14258 79.2472ZM35.1426 109.819C35.1426 123.247 35.1426 136.676 35.1426 149.819C48.5712 149.819 61.9997 149.819 75.1426 149.819C75.1426 136.39 75.1426 122.961 75.1426 109.819C61.9997 109.819 48.5712 109.819 35.1426 109.819ZM124.857 109.819C111.428 109.819 97.9997 109.819 84.8569 109.819C84.8569 123.247 84.8569 136.676 84.8569 149.819C98.2854 149.819 111.714 149.819 124.857 149.819C124.857 136.39 124.857 123.247 124.857 109.819ZM68.8569 100.39C63.714 95.2472 58.8569 90.39 53.714 85.5329C53.4283 85.2472 52.5712 84.9615 51.9997 84.9615C40.8569 84.9615 29.4283 84.9615 18.2854 84.9615C17.9997 84.9615 17.4283 84.9615 16.8569 84.9615C21.714 89.8186 26.5711 94.6757 31.1426 99.2472C31.9997 100.104 32.5712 100.39 33.714 100.39C44.5712 100.39 55.714 100.39 66.5712 100.39C67.4283 100.39 67.9997 100.39 68.8569 100.39ZM91.4283 100.39C91.9997 100.39 92.2854 100.39 92.5712 100.39C104 100.39 115.428 100.39 126.857 100.39C127.428 100.39 128 100.104 128.571 99.5329C133.143 94.9615 137.714 90.39 142.285 85.8186C142.571 85.5329 142.857 85.2472 143.143 84.9615C142.857 84.9615 142.857 84.9615 142.571 84.9615C130.857 84.9615 119.428 84.9615 107.714 84.9615C107.143 84.9615 106.571 85.2472 106.285 85.5329C101.143 90.39 96.2854 95.2472 91.4283 100.39Z" fill="black"/>
<path d="M84.571 71.5329C84.571 72.6757 84.571 73.8186 84.571 74.6757C84.571 77.5329 82.8567 79.8186 79.9996 79.8186C77.4282 79.8186 75.4282 77.8186 75.1425 74.9614C74.8567 66.9614 73.9996 58.9614 71.9996 51.2471C70.571 44.9614 68.2853 38.9614 64.571 33.5329C60.2853 27.8186 54.8567 24.6757 47.7139 25.5329C42.8567 26.1043 39.1425 28.1043 37.7139 32.9614C36.2853 37.8186 37.9996 41.8186 41.7139 45.2471C45.7139 48.6757 50.571 50.1043 55.4282 50.6757C56.8567 50.9614 58.2853 50.9614 59.9996 50.9614C62.571 50.9614 64.2853 52.9614 64.571 55.2472C64.8567 57.5329 62.8567 60.1043 60.571 60.1043C49.7139 60.1043 39.7139 57.8186 32.571 48.9614C27.7139 42.6757 26.571 35.8186 29.7139 28.39C32.8567 21.2471 38.8567 17.5329 46.571 16.6757C57.7139 15.2471 66.2853 19.8186 72.571 28.9614C77.4282 35.8186 79.9996 43.5329 81.7139 51.5329C83.1425 58.1043 83.9996 64.9614 84.571 71.5329Z" fill="black"/>
<path d="M97.7137 60.39C96.8566 60.39 95.9994 60.39 95.1423 60.39C92.2852 60.39 90.2852 58.39 90.2852 55.8186C90.2852 53.2471 92.2852 51.2471 95.1423 51.2471C100.571 51.2471 105.999 50.6757 111.142 48.6757C114.571 47.2471 117.428 45.5329 119.999 42.9614C128.857 33.8186 125.999 21.5329 113.714 17.8186C110.857 16.9614 107.999 16.6757 105.142 16.39C102.285 16.1043 99.9994 14.1043 100.285 11.5329C100.285 8.96143 102.571 6.96143 105.428 6.96143C111.428 6.96143 117.428 8.10428 122.571 11.5329C135.714 19.5329 138.285 36.6757 127.999 48.1043C122.285 54.39 115.142 57.8186 106.857 59.5329C103.714 59.8186 100.857 60.1043 97.7137 60.39Z" fill="black"/>
<path d="M84.8564 4.67573C85.7136 3.81858 86.285 3.24715 87.1422 2.67573C89.1422 1.24715 91.4279 1.24715 93.1422 2.96144C94.8564 4.67573 95.1422 7.24715 93.7136 8.96144C91.9993 10.9614 89.9993 12.9614 87.9993 14.9614C86.285 16.39 83.7136 16.1043 82.285 14.6757C80.5707 12.9614 78.8564 11.2472 77.1422 9.53287C75.4279 7.53287 75.4279 4.96144 77.1422 3.24715C78.8564 1.53287 81.4279 1.24715 83.4279 2.96144C83.7136 3.24715 84.285 3.81858 84.8564 4.67573Z" fill="black"/>
</svg>
