<svg width="26" height="22" viewBox="0 0 26 22" fill="none" xmlns="http://www.w3.org/2000/svg">
<path d="M22.084 0.643007H3.436C2.85734 0.643007 2.316 0.783007 1.812 1.06301C1.308 1.34301 0.90667 1.72567 0.608004 2.21101C0.309337 2.69634 0.160004 3.22834 0.160004 3.80701V17.807C0.160004 18.3857 0.30467 18.927 0.594004 19.431C0.883337 19.935 1.27534 20.3363 1.77 20.635C2.26467 20.9337 2.82 21.083 3.436 21.083H22.084C22.6627 21.083 23.204 20.9383 23.708 20.649C24.212 20.3597 24.6133 19.9677 24.912 19.473C25.2107 18.9783 25.36 18.423 25.36 17.807V3.80701C25.36 3.22834 25.2107 2.69634 24.912 2.21101C24.6133 1.72567 24.212 1.34301 23.708 1.06301C23.204 0.783007 22.6627 0.643007 22.084 0.643007ZM3.436 2.40701H22.084C22.4947 2.40701 22.8307 2.54701 23.092 2.82701C23.3533 3.10701 23.484 3.43367 23.484 3.80701V4.50701L13.46 10.919C13.2173 11.031 12.9653 11.087 12.704 11.087C12.4427 11.087 12.1907 11.031 11.948 10.919L2.036 4.50701V3.80701C2.036 3.39634 2.16667 3.06034 2.428 2.79901C2.68934 2.53767 3.02534 2.40701 3.436 2.40701ZM22.084 19.319H3.436C3.044 19.319 2.71267 19.1743 2.442 18.885C2.17134 18.5957 2.036 18.2737 2.036 17.919V6.60701L11.136 12.431C11.528 12.7483 12.0693 12.907 12.76 12.907C13.4507 12.907 13.992 12.7483 14.384 12.431L23.484 6.60701V17.807C23.484 18.2177 23.3533 18.5723 23.092 18.871C22.8307 19.1697 22.4947 19.319 22.084 19.319Z" fill="#111827"/>
</svg>
