<svg width="37" height="37" viewBox="0 0 37 37" fill="none" xmlns="http://www.w3.org/2000/svg">
<rect x="0.0101318" y="0.146973" width="36" height="36" rx="6" fill="white"/>
<path d="M18.1782 14.5468C17.5275 14.5468 16.9275 14.7095 16.3782 15.0348C15.8288 15.3601 15.3915 15.7975 15.0662 16.3468C14.7408 16.8961 14.5782 17.4961 14.5782 18.1468C14.5782 18.7975 14.7408 19.3975 15.0662 19.9468C15.3915 20.4961 15.8288 20.9308 16.3782 21.2508C16.9275 21.5708 17.5275 21.7308 18.1782 21.7308C18.8288 21.7308 19.4288 21.5708 19.9782 21.2508C20.5275 20.9308 20.9622 20.4961 21.2822 19.9468C21.6022 19.3975 21.7622 18.7975 21.7622 18.1468C21.7622 17.4961 21.6022 16.8961 21.2822 16.3468C20.9622 15.7975 20.5275 15.3601 19.9782 15.0348C19.4288 14.7095 18.8288 14.5468 18.1782 14.5468ZM18.1782 20.4828C17.7515 20.4828 17.3595 20.3788 17.0022 20.1708C16.6448 19.9628 16.3622 19.6775 16.1542 19.3148C15.9462 18.9521 15.8422 18.5628 15.8422 18.1468C15.8422 17.7308 15.9462 17.3415 16.1542 16.9788C16.3622 16.6161 16.6448 16.3308 17.0022 16.1228C17.3595 15.9148 17.7515 15.8108 18.1782 15.8108C18.6048 15.8108 18.9968 15.9148 19.3542 16.1228C19.7115 16.3308 19.9942 16.6135 20.2022 16.9708C20.4102 17.3281 20.5142 17.7201 20.5142 18.1468C20.5142 18.5735 20.4102 18.9655 20.2022 19.3228C19.9942 19.6801 19.7088 19.9628 19.3462 20.1708C18.9835 20.3788 18.5942 20.4828 18.1782 20.4828ZM22.7542 14.4028C22.7542 14.6375 22.6715 14.8375 22.5062 15.0028C22.3408 15.1681 22.1408 15.2508 21.9062 15.2508C21.6715 15.2508 21.4742 15.1681 21.3142 15.0028C21.1542 14.8375 21.0742 14.6375 21.0742 14.4028C21.0742 14.1681 21.1542 13.9708 21.3142 13.8108C21.4742 13.6508 21.6715 13.5708 21.9062 13.5708C22.1408 13.5708 22.3408 13.6508 22.5062 13.8108C22.6715 13.9708 22.7542 14.1681 22.7542 14.4028ZM25.1222 15.2508C25.1008 14.6428 25.0102 14.1148 24.8502 13.6668C24.6688 13.1548 24.3835 12.7068 23.9942 12.3228C23.6048 11.9388 23.1542 11.6561 22.6422 11.4748C22.1942 11.3148 21.6662 11.2188 21.0582 11.1868C20.4822 11.1548 19.5195 11.1388 18.1702 11.1388C16.8208 11.1388 15.8582 11.1548 15.2822 11.1868C14.6635 11.2188 14.1355 11.3148 13.6982 11.4748C13.1862 11.6561 12.7382 11.9388 12.3542 12.3228C11.9702 12.7068 11.6875 13.1548 11.5062 13.6668C11.3355 14.1148 11.2395 14.6428 11.2182 15.2508C11.1862 15.8268 11.1702 16.7895 11.1702 18.1388C11.1702 19.4881 11.1862 20.4508 11.2182 21.0268C11.2395 21.6348 11.3302 22.1628 11.4902 22.6108C11.6715 23.1228 11.9595 23.5761 12.3542 23.9708C12.7488 24.3655 13.2022 24.6481 13.7142 24.8188C14.1408 24.9788 14.6635 25.0695 15.2822 25.0908C15.8582 25.1335 16.8208 25.1548 18.1702 25.1548C19.5195 25.1548 20.4822 25.1335 21.0582 25.0908C21.6662 25.0695 22.1942 24.9788 22.6422 24.8188C23.1542 24.6375 23.6048 24.3521 23.9942 23.9628C24.3835 23.5735 24.6688 23.1228 24.8502 22.6108C25.0102 22.1628 25.1008 21.6348 25.1222 21.0268C25.1542 20.4508 25.1702 19.4908 25.1702 18.1468C25.1702 16.8028 25.1542 15.8375 25.1222 15.2508ZM23.6342 22.2748C23.5168 22.5735 23.3435 22.8401 23.1142 23.0748C22.8848 23.3095 22.6155 23.4855 22.3062 23.6028C21.9542 23.7415 21.3835 23.8321 20.5942 23.8748C20.1462 23.8961 19.5008 23.9015 18.6582 23.8908H17.6982C16.8555 23.9015 16.2102 23.8961 15.7622 23.8748C14.9622 23.8321 14.3915 23.7415 14.0502 23.6028C13.7408 23.4855 13.4715 23.3121 13.2422 23.0828C13.0128 22.8535 12.8395 22.5841 12.7222 22.2748C12.5835 21.9228 12.4928 21.3521 12.4502 20.5628C12.4288 20.1148 12.4235 19.4695 12.4342 18.6268V17.6668C12.4235 16.8241 12.4288 16.1788 12.4502 15.7308C12.4928 14.9308 12.5835 14.3601 12.7222 14.0188C12.8395 13.7095 13.0128 13.4401 13.2422 13.2108C13.4715 12.9815 13.7408 12.8081 14.0502 12.6908C14.3915 12.5521 14.9568 12.4615 15.7462 12.4188C16.1942 12.3975 16.8448 12.3921 17.6982 12.4028H18.6582C19.5008 12.3921 20.1462 12.3975 20.5942 12.4188C21.3835 12.4615 21.9542 12.5521 22.3062 12.6908C22.6155 12.8081 22.8848 12.9815 23.1142 13.2108C23.3435 13.4401 23.5168 13.7095 23.6342 14.0188C23.7728 14.3601 23.8635 14.9255 23.9062 15.7148C23.9275 16.1628 23.9328 16.8135 23.9222 17.6668V18.6268C23.9328 19.4695 23.9275 20.1148 23.9062 20.5628C23.8635 21.3521 23.7728 21.9228 23.6342 22.2748Z" fill="#FD1D1D"/>
</svg>
