<svg width="27" height="19" viewBox="0 0 27 19" fill="none" xmlns="http://www.w3.org/2000/svg">
<g id="i.klb-icon-move-right">
<path id="Vector" d="M23.5128 9.58847C23.5128 9.53859 23.4918 9.49287 23.4499 9.45131C23.4081 9.40975 23.362 9.38897 23.3117 9.38897L19.1157 5.22438C18.9482 5.07475 18.7556 4.99994 18.5378 4.99994C18.3201 4.99994 18.1274 5.07475 17.9599 5.22438C17.7924 5.374 17.7129 5.56519 17.7212 5.79794C17.7296 6.03069 17.8092 6.22188 17.9599 6.37151L20.7992 9.18947H1.82915C1.6114 9.18947 1.41876 9.26428 1.25126 9.4139C1.08375 9.56353 1 9.76719 1 10.0249C1 10.2826 1.07538 10.4821 1.22613 10.6234C1.37689 10.7647 1.57789 10.8354 1.82915 10.8354H20.8997L18.0604 13.6533C17.9097 13.8029 17.8343 13.99 17.8343 14.2144C17.8343 14.4388 17.9097 14.6342 18.0604 14.8004C18.1107 14.8503 18.1861 14.896 18.2866 14.9376C18.3871 14.9792 18.4876 14.9999 18.5881 14.9999C18.6886 14.9999 18.7891 14.9792 18.8896 14.9376C18.9901 14.896 19.0655 14.8503 19.1157 14.8004L23.3117 10.6358C23.3452 10.6026 23.3787 10.561 23.4123 10.5112C23.4458 10.4613 23.4793 10.4363 23.5128 10.4363C23.563 10.2202 23.5881 10.054 23.5881 9.93759C23.5881 9.82122 23.563 9.70484 23.5128 9.58847Z" fill="white"/>
</g>
</svg>
