<svg width="24" height="21" viewBox="0 0 24 21" fill="none" xmlns="http://www.w3.org/2000/svg">
<path id="Vector" d="M6.66003 2.408C5.88003 2.408 5.15637 2.603 4.48903 2.993C3.8217 3.383 3.29303 3.91166 2.90303 4.579C2.51303 5.24633 2.31803 5.97 2.31803 6.75C2.31803 8.53533 2.82937 10.234 3.85203 11.846C4.68403 13.198 5.84537 14.4633 7.33603 15.642C8.6707 16.734 10.2047 17.696 11.938 18.528L12.068 18.58C13.8534 17.7307 15.448 16.7427 16.852 15.616L16.8 15.642C18.2907 14.4633 19.452 13.198 20.284 11.846C21.3067 10.234 21.818 8.53533 21.818 6.75C21.818 5.97 21.623 5.24633 21.233 4.579C20.843 3.91166 20.3144 3.383 19.647 2.993C18.9797 2.603 18.256 2.408 17.476 2.408C16.7827 2.408 16.1284 2.55967 15.513 2.863C14.8977 3.16633 14.3777 3.58233 13.953 4.111C13.5284 4.63967 13.2554 5.23333 13.134 5.892C13.082 6.13467 12.9564 6.33833 12.757 6.503C12.5577 6.66767 12.328 6.75 12.068 6.75C11.808 6.75 11.5784 6.66767 11.379 6.503C11.1797 6.33833 11.054 6.13467 11.002 5.892C10.8807 5.23333 10.6077 4.63967 10.183 4.111C9.75837 3.58233 9.23837 3.16633 8.62303 2.863C8.0077 2.55967 7.35337 2.408 6.66003 2.408ZM12.068 20.842C11.912 20.8247 11.756 20.79 11.6 20.738C11.5134 20.7033 11.366 20.634 11.158 20.53C9.25137 19.6287 7.50937 18.5453 5.93203 17.28L5.98403 17.332C4.3027 16.0147 2.9767 14.576 2.00603 13.016C0.775368 11.04 0.160034 8.95133 0.160034 6.75C0.160034 5.57133 0.450368 4.48367 1.03103 3.487C1.6117 2.49033 2.40037 1.70167 3.39703 1.121C4.3937 0.540333 5.48137 0.249998 6.66003 0.249998C7.75203 0.249998 8.77037 0.496998 9.71503 0.990999C10.6597 1.485 11.444 2.15667 12.068 3.006V3.032C12.692 2.16533 13.4764 1.485 14.421 0.990999C15.3657 0.496998 16.384 0.249998 17.476 0.249998C18.6547 0.249998 19.7424 0.540333 20.739 1.121C21.7357 1.70167 22.5244 2.49033 23.105 3.487C23.6857 4.48367 23.976 5.57133 23.976 6.75C23.976 8.95133 23.3607 11.04 22.13 13.016C21.1594 14.576 19.8334 16.0147 18.152 17.332C16.6094 18.5453 14.9367 19.594 13.134 20.478L12.978 20.53C12.562 20.738 12.2587 20.842 12.068 20.842Z" fill="#030712"/>
</svg>
