<svg width="37" height="37" viewBox="0 0 37 37" fill="none" xmlns="http://www.w3.org/2000/svg">
<rect x="0.0101318" y="0.146973" width="36" height="36" rx="6" fill="white"/>
<g clip-path="url(#clip0_574_969)">
<path d="M14.5477 23.772H11.8327V15.012H14.5477V23.772ZM13.1827 13.812C12.9027 13.812 12.6402 13.7395 12.3952 13.5945C12.1502 13.4495 11.9577 13.257 11.8177 13.017C11.6777 12.777 11.6077 12.512 11.6077 12.222C11.6077 11.932 11.6777 11.667 11.8177 11.427C11.9577 11.187 12.1477 10.997 12.3877 10.857C12.6277 10.717 12.8927 10.647 13.1827 10.647C13.4727 10.647 13.7377 10.717 13.9777 10.857C14.2177 10.997 14.4077 11.187 14.5477 11.427C14.6877 11.667 14.7577 11.932 14.7577 12.222C14.7577 12.512 14.6877 12.777 14.5477 13.017C14.4077 13.257 14.2152 13.4495 13.9702 13.5945C13.7252 13.7395 13.4627 13.812 13.1827 13.812ZM24.7327 23.772H22.0177V19.512C22.0177 19.052 21.9977 18.702 21.9577 18.462C21.8977 18.072 21.7727 17.772 21.5827 17.562C21.3627 17.312 21.0377 17.187 20.6077 17.187C19.9577 17.187 19.5077 17.417 19.2577 17.877C19.0677 18.227 18.9727 18.747 18.9727 19.437V23.772H16.2577V15.012H18.8677V16.197H18.8977C19.0977 15.817 19.4077 15.497 19.8277 15.237C20.3077 14.937 20.8577 14.787 21.4777 14.787C22.3477 14.787 23.0377 14.972 23.5477 15.342C23.9977 15.672 24.3127 16.167 24.4927 16.827C24.6527 17.377 24.7327 18.087 24.7327 18.957V23.772Z" fill="#0077B5"/>
</g>
<defs>
<clipPath id="clip0_574_969">
<rect width="15" height="15" fill="white" transform="matrix(1 0 0 -1 10.5101 25.647)"/>
</clipPath>
</defs>
</svg>
