<svg width="26" height="26" viewBox="0 0 26 26" fill="none" xmlns="http://www.w3.org/2000/svg">
<path d="M22.3432 15.7429C21.1299 15.6123 20.1219 15.3416 19.3192 14.9309C18.7406 14.7069 18.1479 14.6649 17.5412 14.8049C16.9346 14.9449 16.3979 15.2203 15.9312 15.6309L14.8672 16.8069C12.5152 15.2763 10.5739 13.3349 9.04323 10.9829L10.1072 9.91892C10.5552 9.47092 10.8399 8.94359 10.9612 8.33692C11.0826 7.73026 11.0312 7.12826 10.8072 6.53092C10.4712 5.65359 10.2379 4.64559 10.1072 3.50692C9.97656 2.74159 9.59856 2.10226 8.97323 1.58892C8.3479 1.07559 7.6339 0.818923 6.83123 0.818923H3.10723C2.52856 0.856256 2.01056 1.04292 1.55323 1.37892C1.0959 1.71492 0.741229 2.14426 0.489229 2.66692C0.237229 3.18959 0.129896 3.74026 0.167229 4.31892C0.353896 6.18559 0.764563 8.01026 1.39923 9.79292C2.0339 11.5756 2.8739 13.2509 3.91923 14.8189C5.7859 17.7683 8.1939 20.1763 11.1432 22.0429C12.7299 23.0323 14.4099 23.8443 16.1832 24.4789C17.9566 25.1136 19.7766 25.5523 21.6432 25.7949H22.0072C22.3992 25.7949 22.7912 25.7109 23.1832 25.5429C23.5752 25.3749 23.9206 25.1463 24.2192 24.8569C24.5179 24.5676 24.7466 24.2269 24.9052 23.8349C25.0639 23.4429 25.1432 23.0416 25.1432 22.6309V19.1309C25.1432 18.2723 24.8819 17.5256 24.3592 16.8909C23.8366 16.2563 23.1646 15.8736 22.3432 15.7429ZM23.2672 19.0189V22.5189C23.2672 22.9109 23.1179 23.2656 22.8192 23.5829C22.4832 23.8816 22.1286 24.0309 21.7552 24.0309H21.6432C19.9259 23.8629 18.2552 23.4896 16.6312 22.9109C14.9512 22.3136 13.3926 21.5203 11.9552 20.5309C10.6299 19.6723 9.39323 18.6689 8.24523 17.5209C7.09723 16.3729 6.08456 15.1269 5.20723 13.7829C4.2739 12.3269 3.51323 10.7776 2.92523 9.13492C2.33723 7.49226 1.93123 5.81226 1.70723 4.09492C1.76323 3.66559 1.93123 3.30626 2.21123 3.01692C2.49123 2.72759 2.82723 2.58292 3.21923 2.58292H6.83123C7.1859 2.58292 7.5079 2.70892 7.79723 2.96092C8.08656 3.21292 8.23123 3.50692 8.23123 3.84292C8.26856 4.32826 8.3619 4.86959 8.51123 5.46692C8.60456 5.84026 8.7539 6.38159 8.95923 7.09092L9.04323 7.34292C9.15523 7.64159 9.18323 7.92626 9.12723 8.19692C9.07123 8.46759 8.93123 8.69626 8.70723 8.88292L7.41923 10.2829C7.25123 10.3949 7.15323 10.5489 7.12523 10.7449C7.09723 10.9409 7.11123 11.1323 7.16723 11.3189C8.04456 12.8309 9.11323 14.2169 10.3732 15.4769C11.6332 16.7369 13.0192 17.8056 14.5312 18.6829C14.6992 18.7949 14.8859 18.8323 15.0912 18.7949C15.2966 18.7576 15.4552 18.6736 15.5672 18.5429L17.1072 17.0309C17.2939 16.8443 17.5366 16.7136 17.8352 16.6389C18.1339 16.5643 18.3952 16.5829 18.6192 16.6949C19.7019 17.1243 20.8686 17.3949 22.1192 17.5069C22.4739 17.5629 22.7726 17.7449 23.0152 18.0529C23.2579 18.3609 23.3419 18.6829 23.2672 19.0189ZM14.8672 2.44292C16.3792 2.59226 17.7512 3.05892 18.9832 3.84292C20.2152 4.62692 21.2232 5.63492 22.0072 6.86692C22.7912 8.09892 23.2579 9.47092 23.4072 10.9829C23.4072 11.2069 23.4959 11.3983 23.6732 11.5569C23.8506 11.7156 24.0326 11.7949 24.2192 11.7949H24.3312C24.5552 11.7949 24.7466 11.6969 24.9052 11.5009C25.0639 11.3049 25.1432 11.0856 25.1432 10.8429C24.9566 9.08826 24.3872 7.47359 23.4352 5.99892C22.5206 4.56159 21.3306 3.38559 19.8652 2.47092C18.3999 1.55626 16.7806 1.00559 15.0072 0.818923C14.7646 0.818923 14.5452 0.898256 14.3492 1.05692C14.1532 1.21559 14.0552 1.39759 14.0552 1.60292C14.0552 1.80826 14.1346 1.99959 14.2932 2.17692C14.4519 2.35426 14.6432 2.44292 14.8672 2.44292ZM14.0552 6.19492C13.9992 6.41892 14.0459 6.63359 14.1952 6.83892C14.3446 7.04426 14.5312 7.17492 14.7552 7.23092C15.7259 7.41759 16.5706 7.87492 17.2892 8.60292C18.0079 9.33092 18.4886 10.1989 18.7312 11.2069C18.7872 11.4309 18.8899 11.6036 19.0392 11.7249C19.1886 11.8463 19.3566 11.9069 19.5432 11.9069H19.6552C19.8979 11.8509 20.0892 11.7203 20.2292 11.5149C20.3692 11.3096 20.4112 11.0856 20.3552 10.8429C20.1312 9.51759 19.5386 8.36959 18.5772 7.39892C17.6159 6.42826 16.4632 5.79359 15.1192 5.49492C14.8766 5.43892 14.6526 5.47159 14.4472 5.59292C14.2419 5.71426 14.1112 5.91492 14.0552 6.19492Z" fill="#111827"/>
</svg>
