<svg width="26" height="26" viewBox="0 0 26 26" fill="none" xmlns="http://www.w3.org/2000/svg">
<g id="Link">
<path id="Vector" d="M9.70197 1.404C7.98597 1.404 6.39131 1.83734 4.91797 2.704C3.47931 3.536 2.33531 4.67133 1.48597 6.11C0.601973 7.60067 0.159973 9.21267 0.159973 10.946C0.159973 12.8007 0.79264 14.768 2.05797 16.848C3.01131 18.4253 4.28531 20.02 5.87997 21.632C6.74664 22.4987 7.73464 23.4 8.84397 24.336L9.15597 24.596C9.20797 24.648 9.28597 24.6957 9.38997 24.739C9.49397 24.7823 9.60231 24.804 9.71497 24.804C9.82764 24.804 9.92297 24.791 10.001 24.765C10.079 24.739 10.1613 24.6827 10.248 24.596L10.56 24.336C11.6693 23.4 12.6573 22.4987 13.524 21.632C15.1186 20.02 16.3926 18.4253 17.346 16.848C18.6113 14.768 19.244 12.8007 19.244 10.946C19.244 9.21267 18.802 7.60067 17.918 6.11C17.0686 4.67133 15.9246 3.536 14.486 2.704C13.0126 1.83734 11.418 1.404 9.70197 1.404ZM9.70197 22.75C8.78331 22.0047 7.84731 21.1467 6.89397 20.176C5.48997 18.7027 4.37197 17.264 3.53997 15.86C2.44797 14.04 1.90197 12.3673 1.90197 10.842C1.90197 9.42067 2.25731 8.10333 2.96797 6.89C3.64397 5.71134 4.57131 4.784 5.74997 4.108C6.96331 3.39733 8.28064 3.042 9.70197 3.042C11.1233 3.042 12.4406 3.406 13.654 4.134C14.8326 4.82733 15.7686 5.772 16.462 6.968C17.1553 8.164 17.502 9.45533 17.502 10.842C17.502 12.4193 16.956 14.118 15.864 15.938C15.032 17.3247 13.914 18.746 12.51 20.202C11.5913 21.138 10.6553 21.9873 9.70197 22.75ZM9.70197 6.812C8.95664 6.812 8.27197 6.99833 7.64797 7.371C7.02397 7.74367 6.52564 8.24633 6.15297 8.879C5.78031 9.51167 5.59397 10.2007 5.59397 10.946C5.59397 11.6913 5.78031 12.3803 6.15297 13.013C6.52564 13.6457 7.02397 14.144 7.64797 14.508C8.27197 14.872 8.95664 15.054 9.70197 15.054C10.4473 15.054 11.1363 14.8677 11.769 14.495C12.4016 14.1223 12.9 13.624 13.264 13C13.628 12.376 13.81 11.6913 13.81 10.946C13.81 10.2007 13.628 9.51167 13.264 8.879C12.9 8.24633 12.4016 7.74367 11.769 7.371C11.1363 6.99833 10.4473 6.812 9.70197 6.812ZM9.70197 13.312C9.04331 13.312 8.47997 13.078 8.01197 12.61C7.54397 12.142 7.30997 11.5873 7.30997 10.946C7.30997 10.5127 7.41831 10.114 7.63497 9.75C7.85164 9.386 8.14197 9.09567 8.50597 8.879C8.86997 8.66233 9.26864 8.554 9.70197 8.554C10.1353 8.554 10.534 8.66233 10.898 8.879C11.262 9.09567 11.5523 9.386 11.769 9.75C11.9856 10.114 12.094 10.5127 12.094 10.946C12.094 11.5873 11.86 12.142 11.392 12.61C10.924 13.078 10.3606 13.312 9.70197 13.312Z" fill="#030712"/>
</g>
</svg>
