<svg width="20" height="22" viewBox="0 0 20 22" fill="none" xmlns="http://www.w3.org/2000/svg">
<path id="Vector" d="M12.944 9.102C12.112 9.63933 11.2107 9.908 10.24 9.908C9.59866 9.908 8.97899 9.78233 8.38099 9.531C7.78299 9.27967 7.25432 8.92867 6.79499 8.478C6.33566 8.02733 5.98466 7.503 5.74199 6.905C5.49932 6.307 5.37799 5.68733 5.37799 5.046C5.37799 4.04067 5.65099 3.13067 6.19699 2.316C6.74299 1.50133 7.46232 0.907667 8.35499 0.535C9.24766 0.162334 10.1967 0.0713329 11.202 0.262001C12.138 0.435333 12.9613 0.872999 13.672 1.575C14.3827 2.277 14.829 3.109 15.011 4.071C15.193 5.033 15.102 5.97333 14.738 6.892C14.374 7.81067 13.776 8.54733 12.944 9.102ZM11.748 2.784C11.2973 2.48933 10.7947 2.342 10.24 2.342C9.51199 2.342 8.87066 2.602 8.31599 3.122C7.79599 3.67667 7.53599 4.318 7.53599 5.046C7.53599 5.60067 7.68766 6.10333 7.99099 6.554C8.29432 7.00467 8.69732 7.334 9.19999 7.542C9.70266 7.75 10.2227 7.802 10.76 7.698C11.2973 7.594 11.761 7.347 12.151 6.957C12.541 6.567 12.788 6.10333 12.892 5.566C12.996 5.02867 12.944 4.50867 12.736 4.006C12.528 3.50333 12.1987 3.096 11.748 2.784ZM3.34999 13.86C4.25132 12.9413 5.29999 12.235 6.49599 11.741C7.69199 11.247 8.93999 11 10.24 11C11.54 11 12.788 11.247 13.984 11.741C15.18 12.235 16.233 12.937 17.143 13.847C18.053 14.757 18.755 15.81 19.249 17.006C19.743 18.202 19.99 19.45 19.99 20.75C19.99 21.062 19.8773 21.322 19.652 21.53C19.4267 21.738 19.1753 21.842 18.898 21.842H13.49C13.1953 21.842 12.9397 21.7337 12.723 21.517C12.5063 21.3003 12.398 21.0447 12.398 20.75C12.398 20.4553 12.5063 20.1997 12.723 19.983C12.9397 19.7663 13.1953 19.658 13.49 19.658H17.754C17.6153 18.7567 17.3293 17.903 16.896 17.097C16.4627 16.291 15.8993 15.5933 15.206 15.004C14.5127 14.4147 13.7413 13.9597 12.892 13.639C12.0427 13.3183 11.1587 13.158 10.24 13.158C9.32132 13.158 8.43732 13.3183 7.58799 13.639C6.73866 13.9597 5.96732 14.4147 5.27399 15.004C4.58066 15.5933 4.01732 16.291 3.58399 17.097C3.15066 17.903 2.86466 18.7567 2.72599 19.658H6.98999C7.26732 19.658 7.52732 19.762 7.76999 19.97C7.97799 20.2127 8.08199 20.4727 8.08199 20.75C8.08199 21.0273 7.97799 21.2873 7.76999 21.53C7.52732 21.738 7.26732 21.842 6.98999 21.842H1.58199C1.30466 21.842 1.05332 21.738 0.82799 21.53C0.602657 21.322 0.48999 21.062 0.48999 20.75C0.48999 19.45 0.73699 18.2063 1.23099 17.019C1.72499 15.8317 2.43132 14.7787 3.34999 13.86Z" fill="#030712"/>
</svg>
