<svg width="25" height="20" viewBox="0 0 25 20" fill="none" xmlns="http://www.w3.org/2000/svg">
<path id="Vector" d="M22.182 0.25H1.07003C0.810034 0.284666 0.593368 0.406 0.420034 0.614C0.246701 0.822001 0.160034 1.056 0.160034 1.316C0.160034 1.576 0.246701 1.81433 0.420034 2.031C0.593368 2.24767 0.810034 2.37333 1.07003 2.408H5.25603L4.50203 12.002V12.184C4.50203 12.7733 4.71437 13.2803 5.13903 13.705C5.5637 14.1297 6.0707 14.342 6.66003 14.342H19.946C20.466 14.342 20.921 14.1817 21.311 13.861C21.701 13.5403 21.948 13.146 22.052 12.678L24.288 2.902C24.3227 2.694 24.34 2.52933 24.34 2.408C24.34 1.80133 24.132 1.29 23.716 0.874001C23.3 0.458 22.7887 0.25 22.182 0.25ZM19.946 12.158H6.66003L7.41403 2.408H22.182L19.946 12.158ZM8.66203 19.75C9.2687 19.75 9.78437 19.5377 10.209 19.113C10.6337 18.6883 10.846 18.1727 10.846 17.566C10.846 16.9593 10.6337 16.448 10.209 16.032C9.78437 15.616 9.2687 15.408 8.66203 15.408C8.0727 15.408 7.5657 15.616 7.14103 16.032C6.71637 16.448 6.50403 16.9593 6.50403 17.566C6.50403 18.1727 6.71637 18.6883 7.14103 19.113C7.5657 19.5377 8.0727 19.75 8.66203 19.75ZM18.412 19.75C19.0187 19.75 19.5344 19.5377 19.959 19.113C20.3837 18.6883 20.596 18.1727 20.596 17.566C20.596 16.9593 20.3837 16.448 19.959 16.032C19.5344 15.616 19.0187 15.408 18.412 15.408C17.8227 15.408 17.3157 15.616 16.891 16.032C16.4664 16.448 16.254 16.9593 16.254 17.566C16.254 18.1727 16.4664 18.6883 16.891 19.113C17.3157 19.5377 17.8227 19.75 18.412 19.75Z" fill="#030712"/>
</svg>
