<svg width="37" height="37" viewBox="0 0 37 37" fill="none" xmlns="http://www.w3.org/2000/svg">
<rect x="0.0101318" y="0.146973" width="36" height="36" rx="6" fill="white"/>
<g clip-path="url(#clip0_574_961)">
<path d="M20.9827 19.077L21.4027 16.362H18.7927V14.607C18.7927 14.187 18.9027 13.852 19.1227 13.602C19.3927 13.292 19.7927 13.137 20.3227 13.137H21.5077V10.827L20.8477 10.737C20.3177 10.677 19.8377 10.647 19.4077 10.647C18.6877 10.647 18.0627 10.7895 17.5327 11.0745C17.0027 11.3595 16.5927 11.777 16.3027 12.327C16.0127 12.877 15.8677 13.537 15.8677 14.307V16.362H13.4827V19.077H15.8677V25.647H18.7927V19.077H20.9827Z" fill="#1877F2"/>
</g>
<defs>
<clipPath id="clip0_574_961">
<rect width="15" height="15" fill="white" transform="matrix(1 0 0 -1 10.5101 25.647)"/>
</clipPath>
</defs>
</svg>
