<svg width="53" height="16" viewBox="0 0 53 16" fill="none" xmlns="http://www.w3.org/2000/svg">
<mask id="mask0_574_989" style="mask-type:luminance" maskUnits="userSpaceOnUse" x="0" y="1" width="53" height="15">
<path d="M52.5 1.05566H0V15.0557H52.5V1.05566Z" fill="white"/>
</mask>
<g mask="url(#mask0_574_989)">
<path d="M6.63747 1.16797H2.61247C2.33747 1.16797 2.09997 1.36796 2.06247 1.64296L0.437472 11.9429C0.399972 12.1429 0.562472 12.3304 0.774972 12.3304H2.69997C2.97497 12.3304 3.21247 12.1305 3.24997 11.8555L3.68747 9.08046C3.72497 8.80546 3.96247 8.60547 4.23747 8.60547H5.49997C8.14997 8.60547 9.67497 7.33048 10.075 4.78048C10.25 3.66798 10.0875 2.79297 9.56247 2.18047C8.98747 1.53047 7.97497 1.16797 6.63747 1.16797ZM7.09997 4.94297C6.87497 6.38047 5.77497 6.38047 4.71247 6.38047H4.09997L4.52497 3.69297C4.54997 3.53047 4.68747 3.40548 4.84997 3.40548H5.12497C5.84997 3.40548 6.53747 3.40547 6.88747 3.81797C7.11247 4.06797 7.17497 4.43047 7.09997 4.94297Z" fill="#283B82"/>
<path d="M18.65 4.89307H16.725C16.5625 4.89307 16.425 5.01808 16.4 5.18058L16.3125 5.71809L16.175 5.51807C15.7625 4.91807 14.825 4.70557 13.9 4.70557C11.775 4.70557 9.9625 6.31807 9.6 8.58057C9.4125 9.70557 9.675 10.7806 10.3125 11.5431C10.9 12.2306 11.7375 12.518 12.7375 12.518C14.45 12.518 15.4 11.4181 15.4 11.4181L15.3125 11.9555C15.275 12.1555 15.4375 12.3431 15.6375 12.3431H17.375C17.65 12.3431 17.8875 12.1431 17.925 11.8681L18.9625 5.28059C19.0125 5.08059 18.85 4.89307 18.65 4.89307ZM15.9625 8.64307C15.775 9.74307 14.9 10.4806 13.7875 10.4806C13.225 10.4806 12.7875 10.3056 12.5 9.95557C12.2125 9.61807 12.1125 9.14308 12.2 8.60558C12.375 7.51808 13.2625 6.75558 14.3625 6.75558C14.9125 6.75558 15.35 6.94309 15.65 7.28059C15.925 7.61809 16.05 8.10557 15.9625 8.64307Z" fill="#283B82"/>
<path d="M28.9 4.89307H26.9625C26.775 4.89307 26.6 4.98057 26.5 5.14307L23.8375 9.06808L22.7125 5.29308C22.6375 5.05558 22.425 4.89307 22.175 4.89307H20.275C20.05 4.89307 19.8875 5.11807 19.9625 5.33057L22.0875 11.5806L20.0875 14.4056C19.925 14.6306 20.0875 14.9306 20.3625 14.9306H22.3C22.4875 14.9306 22.65 14.8431 22.7625 14.6931L29.2 5.40559C29.325 5.19309 29.1625 4.89307 28.9 4.89307Z" fill="#283B82"/>
<path d="M35.3 1.16797H31.275C31 1.16797 30.7625 1.36796 30.725 1.64296L29.1 11.9429C29.0625 12.1429 29.225 12.3304 29.425 12.3304H31.5C31.6875 12.3304 31.85 12.1929 31.8875 12.0054L32.35 9.08046C32.3875 8.80546 32.625 8.60547 32.9 8.60547H34.175C36.825 8.60547 38.35 7.33048 38.75 4.78048C38.925 3.66798 38.7625 2.79297 38.2375 2.18047C37.6625 1.53047 36.65 1.16797 35.3 1.16797ZM35.7625 4.94297C35.5375 6.38047 34.4375 6.38047 33.375 6.38047H32.775L33.2 3.69297C33.225 3.53047 33.3625 3.40548 33.525 3.40548H33.8C34.525 3.40548 35.2125 3.40547 35.5625 3.81797C35.775 4.06797 35.8375 4.43047 35.7625 4.94297Z" fill="#469BDB"/>
<path d="M47.3125 4.89307H45.3875C45.225 4.89307 45.0875 5.01808 45.0625 5.18058L44.975 5.71809L44.8375 5.51807C44.425 4.91807 43.4875 4.70557 42.5625 4.70557C40.4375 4.70557 38.625 6.31807 38.2625 8.58057C38.075 9.70557 38.3375 10.7806 38.975 11.5431C39.5625 12.2306 40.4 12.518 41.4 12.518C43.1125 12.518 44.0625 11.4181 44.0625 11.4181L43.975 11.9555C43.9375 12.1555 44.1 12.3431 44.3125 12.3431H46.05C46.325 12.3431 46.5625 12.1431 46.6 11.8681L47.6375 5.28059C47.675 5.08059 47.5125 4.89307 47.3125 4.89307ZM44.625 8.64307C44.4375 9.74307 43.5625 10.4806 42.45 10.4806C41.8875 10.4806 41.45 10.3056 41.1625 9.95557C40.875 9.61807 40.775 9.14308 40.8625 8.60558C41.0375 7.51808 41.925 6.75558 43.025 6.75558C43.575 6.75558 44.0125 6.94309 44.3125 7.28059C44.6 7.61809 44.7125 8.10557 44.625 8.64307Z" fill="#469BDB"/>
<path d="M49.575 1.45554L47.925 11.9556C47.8875 12.1556 48.05 12.3431 48.25 12.3431H49.9125C50.1875 12.3431 50.425 12.1431 50.4625 11.8681L52.0875 1.56805C52.125 1.36805 51.9625 1.18055 51.7625 1.18055H49.9C49.75 1.16805 49.6125 1.29304 49.575 1.45554Z" fill="#469BDB"/>
</g>
</svg>
