<svg width="41" height="16" viewBox="0 0 41 16" fill="none" xmlns="http://www.w3.org/2000/svg">
<mask id="mask0_574_1000" style="mask-type:luminance" maskUnits="userSpaceOnUse" x="0" y="1" width="41" height="15">
<path d="M40.5 1.05566H0.5V15.0557H40.5V1.05566Z" fill="white"/>
</mask>
<g mask="url(#mask0_574_1000)">
<path d="M29.3 4.45537C30.2 4.45537 30.9 3.75537 30.9 2.85537C30.9 1.95537 30.2 1.25537 29.3 1.25537C28.4 1.25537 27.7 1.95537 27.7 2.85537C27.6 3.75537 28.3 4.45537 29.3 4.45537C29.3 4.55537 29.3 4.55537 29.3 4.45537ZM16.7 5.35537C16.6 5.55537 16.1 7.05537 14.8 8.65537V1.95537L11.4 2.65537V14.7554H14.8V11.0554C15.8 12.5554 16.3 14.7554 16.3 14.7554H20.4C20 13.0554 18.2 9.95537 18.2 9.95537C19.3 8.55537 20.1 7.05537 20.6 5.45537L16.7 5.35537ZM25.7 5.25537C22.6 5.35537 21.1 6.75537 21.1 9.45537V14.7554H24.5V10.4554C24.5 8.85537 24.7 8.15537 26.7 8.05537V5.35537C26.3 5.25537 25.7 5.25537 25.7 5.25537ZM5.6 6.75537C5.2 6.75537 4.2 6.65537 4.2 5.75537C4.2 4.65537 5.6 4.65537 6.1 4.65537C7 4.65537 8.2 4.95537 9.1 5.15537C9.4 5.25537 9.7 5.35537 10 5.45537V2.65537H9.9C8.9 2.25537 7.7 1.95537 5.5 1.95537C1.8 1.95537 0.5 4.15537 0.5 6.05537C0.5 7.15537 1 9.65537 5.3 9.95537C5.7 9.95537 6.6 10.0554 6.6 10.9554C6.6 11.6554 5.8 12.1554 4.5 12.1554C3 12.1554 1.6 11.7554 0.8 11.4554V14.4554C2.1 14.7554 3.5 14.9554 5.2 14.9554C8.9 14.9554 10.5 12.8554 10.5 10.8554C10.5 8.45537 8.7 6.95537 5.6 6.75537ZM27.6 14.7554H30.9V5.35537H27.6V14.7554ZM37.2 2.55537V14.7554H40.5V1.95537L37.2 2.55537ZM32.3 2.55537L35.6 1.95537V14.7554H32.3V2.55537Z" fill="#862565"/>
</g>
</svg>
