<svg width="36" height="14" viewBox="0 0 36 14" fill="none" xmlns="http://www.w3.org/2000/svg">
<mask id="mask0_574_975" style="mask-type:luminance" maskUnits="userSpaceOnUse" x="0" y="1" width="36" height="13">
<path d="M36 1.05566H0V13.0557H36V1.05566Z" fill="white"/>
</mask>
<g mask="url(#mask0_574_975)">
<path d="M31.6 5.35577L32.2 8.55577H29.8L31 5.45577L31.2 4.85577L31.3 4.35577C31.3 4.45577 31.6 5.35577 31.6 5.35577ZM8.89999 12.4558L13.3 1.55577H10.3L7.59999 9.05577L7.29999 7.45577L6.29999 2.45577C6.19999 1.85577 5.69999 1.45577 4.89999 1.45577H0.399988L0.299988 1.65577C1.49999 1.85577 2.39999 2.25577 3.29999 2.85577L5.89999 12.5558H8.99999L8.89999 12.4558ZM15.6 12.4558L17.4 1.55577H14.6L12.8 12.6558H15.6V12.4558ZM25.7 8.95577C25.7 7.75577 24.9 6.75577 23.3 5.85577C22.1 5.35577 21.5 4.95577 21.5 4.55577C21.5 3.95577 22.1 3.65577 23.3 3.65577C24 3.65577 24.7 3.65577 25.3 4.15577H25.7L26 1.65577C25.1 1.25576 24.3 1.15576 23.4 1.15576C22.5 1.15576 21.7 1.35576 21 1.65577C20.3 1.95577 19.7 2.35577 19.2 2.95577C18.8 3.55577 18.6 4.15577 18.6 4.85577C18.6 6.05577 19.4 7.05577 21.2 7.95577C22.1 8.45577 22.6 8.85576 22.6 9.25576C22.6 9.95576 22 10.4558 20.9 10.4558C20 10.4558 19 10.2558 18.2 9.85577L17.8 9.65577L17.3 12.0558C18.3 12.4558 19.4 12.7558 20.5 12.7558C21.8 12.8558 23 12.4558 24 11.8558C25.2 11.0558 25.7 10.0558 25.7 8.95577ZM35.7 12.4558L33.4 1.55577H31.2C30.5 1.55577 30 1.75577 29.8 2.45577L25.5 12.6558H28.5L29 11.0558H32.8L33.2 12.7558H35.8V12.4558H35.7Z" fill="url(#paint0_linear_574_975)"/>
</g>
<defs>
<linearGradient id="paint0_linear_574_975" x1="1.58189" y1="6.96417" x2="35.2449" y2="6.96417" gradientUnits="userSpaceOnUse">
<stop stop-color="#2C3572"/>
<stop offset="1" stop-color="#3C62AB"/>
</linearGradient>
</defs>
</svg>
