<svg width="64" height="16" viewBox="0 0 64 16" fill="none" xmlns="http://www.w3.org/2000/svg">
<g clip-path="url(#clip0_574_1006)">
<mask id="mask0_574_1006" style="mask-type:luminance" maskUnits="userSpaceOnUse" x="0" y="1" width="64" height="15">
<path d="M63.2 1.05566H0.5V15.0557H63.2V1.05566Z" fill="white"/>
</mask>
<g mask="url(#mask0_574_1006)">
<path d="M11.6 1.05566H8.59995C8.59995 3.55566 7.39995 5.85566 5.39995 7.35566L4.19995 8.35566L8.89995 14.7556H12.8L8.39995 8.85566C10.5 6.85566 11.6 4.05566 11.6 1.05566Z" fill="black"/>
<path d="M3.79995 1.05566H0.699951V14.7556H3.79995V1.05566Z" fill="black"/>
<path d="M16.7 1.05566H13.7V14.7556H16.7V1.05566Z" fill="black"/>
<path d="M42.5999 5.05566C41.4999 5.05566 40.3999 5.35566 39.6999 6.35566V5.35566H36.8999V14.7556H39.7999V9.75566C39.7999 8.35566 40.7999 7.65566 41.8999 7.65566C43.0999 7.65566 43.8999 8.35566 43.8999 9.75566V14.7556H46.6999V8.75566C46.5999 6.55566 44.8999 5.05566 42.5999 5.05566Z" fill="black"/>
<path d="M25.5999 5.35566V5.95566C24.7999 5.35566 23.7999 5.05566 22.7999 5.05566C19.9999 5.05566 17.7999 7.25566 17.7999 10.0557C17.7999 12.8556 19.9999 15.0556 22.7999 15.0556C23.7999 15.0556 24.7999 14.7556 25.5999 14.1556V14.7556H28.3999V5.35566H25.5999ZM22.9999 12.4556C21.5999 12.4556 20.3999 11.3556 20.3999 10.0557C20.3999 8.75566 21.4999 7.65566 22.9999 7.65566C24.4999 7.65566 25.5999 8.75566 25.5999 10.0557C25.5999 11.3556 24.3999 12.4556 22.9999 12.4556Z" fill="black"/>
<path d="M32.7999 6.55596V5.35596H29.8999V14.756H32.7999V10.356C32.7999 8.85596 34.3999 8.05596 35.4999 8.05596V5.35596C34.3999 5.35596 33.3999 5.75596 32.7999 6.55596Z" fill="black"/>
<path d="M55.4 5.35566V5.95566C54.6 5.35566 53.7 5.05566 52.6 5.05566C49.8 5.05566 47.6 7.25566 47.6 10.0557C47.6 12.8556 49.8 15.0556 52.6 15.0556C53.6 15.0556 54.6 14.7556 55.4 14.1556V14.7556H58.2V5.35566H55.4ZM52.9 12.4556C51.5 12.4556 50.3 11.3556 50.3 10.0557C50.3 8.75566 51.4 7.65566 52.9 7.65566C54.3 7.65566 55.5 8.75566 55.5 10.0557C55.4 11.3556 54.3 12.4556 52.9 12.4556Z" fill="black"/>
<path d="M60.4 5.55596C60.4 5.45596 60.3 5.35596 60.2 5.35596H59.9V6.05596H60V5.85596H60.1L60.3 6.05596H60.4L60.3 5.75596C60.4 5.75596 60.4 5.65596 60.4 5.55596ZM60.2 5.65596H60.1V5.45596H60.2C60.3 5.45596 60.3 5.45596 60.3 5.55596C60.3 5.65596 60.3 5.65596 60.2 5.65596Z" fill="black"/>
<path d="M60.2 5.05566C59.8 5.05566 59.5 5.35566 59.5 5.75566C59.5 6.15566 59.8 6.45566 60.2 6.45566C60.6 6.45566 60.9 6.15566 60.9 5.75566C60.9 5.35566 60.5 5.05566 60.2 5.05566ZM60.2 6.25566C59.9 6.25566 59.7 6.05566 59.7 5.65566C59.7 5.35566 59.9 5.05566 60.2 5.05566C60.5 5.05566 60.7 5.25566 60.7 5.65566C60.7 6.05566 60.4 6.25566 60.2 6.25566Z" fill="black"/>
<path d="M61.3 11.4556C60.3 11.4556 59.5 12.2556 59.5 13.2556C59.5 14.2556 60.3 15.0556 61.3 15.0556C62.3 15.0556 63.1 14.2556 63.1 13.2556C63.1 12.1556 62.3 11.4556 61.3 11.4556Z" fill="black"/>
</g>
</g>
<defs>
<clipPath id="clip0_574_1006">
<rect width="64" height="15" fill="white" transform="translate(0 0.455566)"/>
</clipPath>
</defs>
</svg>
