<svg width="195" height="40" viewBox="0 0 195 40" fill="none" xmlns="http://www.w3.org/2000/svg">
<path d="M22.3583 39.1226C31.1712 39.1226 38.3154 31.9784 38.3154 23.1655V11.2052C38.3154 7.64875 35.4689 4.76576 31.9575 4.76576H12.7591C9.24765 4.76576 6.40115 7.64875 6.40115 11.2052V23.1655C6.40115 31.9784 13.5454 39.1226 22.3583 39.1226V39.1226Z" fill="#634C9F"/>
<path d="M15.0293 23.8581C15.3618 25.3733 16.3592 27.3935 17.5228 27.7302C24.2063 30.0381 31.3065 29.9559 38.3157 30.0531V11.2052C38.3157 7.64875 35.4692 4.76575 31.9577 4.76575H12.7593C10.8628 4.76575 9.16147 5.60772 7.9967 6.94147C13.5007 10.3341 13.3095 17.8404 15.0293 23.8581Z" fill="#FACC15"/>
<path d="M36.7976 30.99C36.6699 30.99 36.5415 30.9848 36.4123 30.9742L20.0381 29.6204C17.5265 29.4126 15.4061 27.6154 14.7617 25.1483L11.5694 12.9273C11.0034 10.7543 10.4179 8.50756 7.9167 7.82688L0.796621 6.34431C0.257208 6.23201 -0.090377 5.69798 0.0206638 5.15148C0.131538 4.60498 0.659649 4.25311 1.1984 4.3654L8.39926 5.86633C12.0463 6.83844 12.8854 10.0598 13.4982 12.412L13.5391 12.5692L16.6901 24.6316C17.1188 26.2729 18.5294 27.4684 20.2003 27.6068L36.5747 28.9606C37.8766 29.0683 39.073 28.2208 39.4202 26.946L42.4368 15.8711L21.5278 14.1315C21.0755 14.0942 20.6488 14.2732 20.3559 14.6236C20.063 14.9741 19.9588 15.4302 20.07 15.8753L21.0032 19.6134C21.3117 20.8488 22.36 21.7647 23.612 21.8925L33.4695 22.8986C33.9729 22.95 34.4327 22.6464 34.5906 22.161C34.6927 21.8465 34.6486 21.5073 34.4694 21.2303C34.29 20.9534 34.0005 20.777 33.6748 20.7465L25.3966 19.971C24.8483 19.9197 24.4448 19.4277 24.4955 18.8721C24.5462 18.3167 25.0293 17.9078 25.5805 17.9593L33.8587 18.7348C34.7927 18.8223 35.6234 19.3282 36.1377 20.1229C36.6518 20.9174 36.7785 21.8908 36.4851 22.7931C36.0321 24.1859 34.7081 25.056 33.2696 24.9087L23.412 23.9026C21.328 23.6899 19.5828 22.1653 19.0693 20.1087L18.1361 16.3706C17.865 15.2852 18.1193 14.1727 18.8336 13.3183C19.5479 12.4637 20.5893 12.0268 21.6911 12.1179L45 14.0572L41.3431 27.4832C40.7758 29.5657 38.9001 30.9898 36.7976 30.99Z" fill="#634C9F"/>
<path d="M22.3701 33.4785C22.3701 34.9973 21.1545 36.2285 19.6549 36.2285C18.1555 36.2285 16.9399 34.9973 16.9399 33.4785C16.9399 31.9597 18.1555 30.7287 19.6549 30.7287C21.1545 30.7287 22.3701 31.9597 22.3701 33.4785Z" fill="#DC2626"/>
<path d="M35.8678 34.3144C35.8678 35.2322 35.1334 35.976 34.2275 35.976C33.3215 35.976 32.5871 35.2322 32.5871 34.3144C32.5871 33.3969 33.3215 32.6531 34.2275 32.6531C35.1334 32.6531 35.8678 33.3969 35.8678 34.3144Z" fill="#DC2626"/>
<path d="M19.5174 9.04243C19.5174 10.3752 18.4507 11.4555 17.1348 11.4555C15.819 11.4555 14.7521 10.3752 14.7521 9.04243C14.7521 7.7097 15.819 6.62916 17.1348 6.62916C18.4507 6.62916 19.5174 7.7097 19.5174 9.04243Z" fill="#F25321"/>
<path d="M23.9357 3.26198C23.9357 5.0636 22.4938 6.52395 20.715 6.52395C18.9363 6.52395 17.4943 5.0636 17.4943 3.26198C17.4943 1.46053 18.9363 3.48687e-06 20.715 3.48687e-06C22.4938 3.48687e-06 23.9357 1.46053 23.9357 3.26198Z" fill="#634C9F"/>
<path d="M23.1551 8.23801C23.1551 8.86819 22.6508 9.37916 22.0284 9.37916C21.4062 9.37916 20.9017 8.86819 20.9017 8.23801C20.9017 7.60784 21.4062 7.09687 22.0284 7.09687C22.6508 7.09687 23.1551 7.60784 23.1551 8.23801Z" fill="#634C9F"/>
<path d="M30.1477 4.91761C30.1477 6.37426 28.9816 7.55514 27.5434 7.55514C26.1051 7.55514 24.9393 6.37426 24.9393 4.91761C24.9393 3.46079 26.1051 2.27992 27.5434 2.27992C28.9816 2.27992 30.1477 3.46079 30.1477 4.91761Z" fill="#F25321"/>
<path d="M32.6478 9.8701C32.6478 11.0557 31.6988 12.0167 30.5284 12.0167C29.3578 12.0167 28.409 11.0557 28.409 9.8701C28.409 8.68467 29.3578 7.72351 30.5284 7.72351C31.6988 7.72351 32.6478 8.68467 32.6478 9.8701Z" fill="#F25321"/>
<path d="M41.6451 10.8102C41.6451 11.9958 40.6961 12.9568 39.5257 12.9568C38.3551 12.9568 37.4062 11.9958 37.4062 10.8102C37.4062 9.62479 38.3551 8.66363 39.5257 8.66363C40.6961 8.66363 41.6451 9.62479 41.6451 10.8102Z" fill="#634C9F"/>
<path d="M26.9133 10.2489C26.9133 11.0394 26.2808 11.68 25.5004 11.68C24.7201 11.68 24.0874 11.0394 24.0874 10.2489C24.0874 9.45862 24.7201 8.81784 25.5004 8.81784C26.2808 8.81784 26.9133 9.45862 26.9133 10.2489Z" fill="#634C9F"/>
<path d="M35.4736 5.05787C35.4736 6.04967 34.6797 6.85376 33.7004 6.85376C32.7214 6.85376 31.9273 6.04967 31.9273 5.05787C31.9273 4.06606 32.7214 3.26197 33.7004 3.26197C34.6797 3.26197 35.4736 4.06606 35.4736 5.05787Z" fill="#634C9F"/>
<path d="M36.2216 10.8102C36.2216 11.6005 35.5891 12.2413 34.8087 12.2413C34.0284 12.2413 33.3957 11.6005 33.3957 10.8102C33.3957 10.0199 34.0284 9.37915 34.8087 9.37915C35.5891 9.37915 36.2216 10.0199 36.2216 10.8102Z" fill="#634C9F"/>
<path d="M37.8579 7.55513C37.8579 8.2215 37.3245 8.76177 36.6666 8.76177C36.0086 8.76177 35.4754 8.2215 35.4754 7.55513C35.4754 6.88877 36.0086 6.34867 36.6666 6.34867C37.3245 6.34867 37.8579 6.88877 37.8579 7.55513Z" fill="#F25321"/>
<path d="M63.0909 16.3101C62.9716 15.8953 62.804 15.5289 62.5881 15.2107C62.3722 14.8868 62.108 14.6141 61.7955 14.3925C61.4886 14.1652 61.1364 13.9919 60.7386 13.8726C60.3466 13.7533 59.9119 13.6936 59.4347 13.6936C58.5426 13.6936 57.7585 13.9152 57.0824 14.3584C56.4119 14.8016 55.8892 15.4465 55.5142 16.2931C55.1392 17.134 54.9517 18.1624 54.9517 19.3783C54.9517 20.5942 55.1364 21.6283 55.5057 22.4806C55.875 23.3328 56.3977 23.9834 57.0739 24.4323C57.75 24.8755 58.5483 25.0971 59.4688 25.0971C60.304 25.0971 61.017 24.9493 61.608 24.6539C62.2045 24.3527 62.6591 23.9294 62.9716 23.384C63.2898 22.8385 63.4489 22.1936 63.4489 21.4493L64.1989 21.5601H59.6989V18.7817H67.0028V20.9806C67.0028 22.5147 66.679 23.8328 66.0312 24.9351C65.3835 26.0317 64.4915 26.8783 63.3551 27.4749C62.2188 28.0658 60.9176 28.3613 59.4517 28.3613C57.8153 28.3613 56.3778 28.0005 55.1392 27.2789C53.9006 26.5516 52.9347 25.5203 52.2415 24.1851C51.554 22.8442 51.2102 21.2533 51.2102 19.4124C51.2102 17.9976 51.4148 16.7363 51.8239 15.6283C52.2386 14.5147 52.8182 13.5715 53.5625 12.7988C54.3068 12.026 55.1733 11.438 56.1619 11.0346C57.1506 10.6311 58.2216 10.4294 59.375 10.4294C60.3636 10.4294 61.2841 10.5743 62.1364 10.8641C62.9886 11.1482 63.7443 11.5516 64.4034 12.0743C65.0682 12.5971 65.6108 13.2192 66.0312 13.9408C66.4517 14.6567 66.7216 15.4465 66.8409 16.3101H63.0909ZM69.7067 28.1226V15.0317H73.2266V17.3158H73.3629C73.6016 16.5033 74.0021 15.8897 74.5646 15.4749C75.1271 15.0544 75.7749 14.8442 76.5078 14.8442C76.6896 14.8442 76.8857 14.8556 77.0959 14.8783C77.3061 14.901 77.4908 14.9323 77.6499 14.9721V18.1936C77.4794 18.1425 77.2436 18.0971 76.9425 18.0573C76.6413 18.0175 76.3658 17.9976 76.1158 17.9976C75.5817 17.9976 75.1044 18.1141 74.6839 18.3471C74.2692 18.5743 73.9396 18.8925 73.6953 19.3016C73.4567 19.7107 73.3374 20.1823 73.3374 20.7164V28.1226H69.7067ZM84.8835 28.3783C83.5369 28.3783 82.3778 28.1056 81.4062 27.5601C80.4403 27.009 79.696 26.2306 79.1733 25.2249C78.6506 24.2135 78.3892 23.0175 78.3892 21.6368C78.3892 20.2902 78.6506 19.1084 79.1733 18.0914C79.696 17.0743 80.4318 16.2817 81.3807 15.7135C82.3352 15.1453 83.4545 14.8613 84.7386 14.8613C85.6023 14.8613 86.4063 15.0005 87.1506 15.2789C87.9006 15.5516 88.554 15.9635 89.1108 16.5147C89.6733 17.0658 90.1108 17.759 90.4233 18.5942C90.7358 19.4238 90.892 20.3953 90.892 21.509V22.5061H79.8381V20.2561H87.4744C87.4744 19.7334 87.3608 19.2703 87.1335 18.8669C86.9063 18.4635 86.5909 18.1482 86.1875 17.9209C85.7898 17.688 85.3267 17.5715 84.7983 17.5715C84.2472 17.5715 83.7585 17.6993 83.3324 17.955C82.9119 18.205 82.5824 18.5431 82.3438 18.9692C82.1051 19.3897 81.983 19.8584 81.9773 20.3755V22.5147C81.9773 23.1624 82.0966 23.7221 82.3352 24.1936C82.5795 24.6652 82.9233 25.0289 83.3665 25.2846C83.8097 25.5402 84.3352 25.6681 84.9432 25.6681C85.3466 25.6681 85.7159 25.6113 86.0511 25.4976C86.3864 25.384 86.6733 25.2135 86.9119 24.9863C87.1506 24.759 87.3324 24.4806 87.4574 24.151L90.8153 24.3726C90.6449 25.1794 90.2955 25.884 89.767 26.4863C89.2443 27.0828 88.5682 27.5488 87.7386 27.884C86.9148 28.2135 85.9631 28.3783 84.8835 28.3783ZM99.2273 28.3783C97.8807 28.3783 96.7216 28.1056 95.75 27.5601C94.7841 27.009 94.0398 26.2306 93.517 25.2249C92.9943 24.2135 92.733 23.0175 92.733 21.6368C92.733 20.2902 92.9943 19.1084 93.517 18.0914C94.0398 17.0743 94.7756 16.2817 95.7244 15.7135C96.679 15.1453 97.7983 14.8613 99.0824 14.8613C99.946 14.8613 100.75 15.0005 101.494 15.2789C102.244 15.5516 102.898 15.9635 103.455 16.5147C104.017 17.0658 104.455 17.759 104.767 18.5942C105.08 19.4238 105.236 20.3953 105.236 21.509V22.5061H94.1818V20.2561H101.818C101.818 19.7334 101.705 19.2703 101.477 18.8669C101.25 18.4635 100.935 18.1482 100.531 17.9209C100.134 17.688 99.6705 17.5715 99.142 17.5715C98.5909 17.5715 98.1023 17.6993 97.6761 17.955C97.2557 18.205 96.9261 18.5431 96.6875 18.9692C96.4489 19.3897 96.3267 19.8584 96.321 20.3755V22.5147C96.321 23.1624 96.4403 23.7221 96.679 24.1936C96.9233 24.6652 97.267 25.0289 97.7102 25.2846C98.1534 25.5402 98.679 25.6681 99.2869 25.6681C99.6903 25.6681 100.06 25.6113 100.395 25.4976C100.73 25.384 101.017 25.2135 101.256 24.9863C101.494 24.759 101.676 24.4806 101.801 24.151L105.159 24.3726C104.989 25.1794 104.639 25.884 104.111 26.4863C103.588 27.0828 102.912 27.5488 102.082 27.884C101.259 28.2135 100.307 28.3783 99.2273 28.3783ZM111.236 20.5544V28.1226H107.605V15.0317H111.065V17.3414H111.219C111.509 16.58 111.994 15.9777 112.676 15.5346C113.358 15.0857 114.185 14.8613 115.156 14.8613C116.065 14.8613 116.858 15.0601 117.534 15.4578C118.21 15.8556 118.736 16.4238 119.111 17.1624C119.486 17.8953 119.673 18.7703 119.673 19.7874V28.1226H116.043V20.4351C116.048 19.634 115.844 19.009 115.429 18.5601C115.014 18.1056 114.443 17.8783 113.716 17.8783C113.227 17.8783 112.795 17.9834 112.42 18.1936C112.051 18.4039 111.761 18.7107 111.551 19.1141C111.347 19.5118 111.241 19.9919 111.236 20.5544ZM137.626 15.688C137.558 15.0005 137.266 14.4664 136.749 14.0857C136.232 13.705 135.53 13.5147 134.643 13.5147C134.041 13.5147 133.533 13.5999 133.118 13.7703C132.703 13.9351 132.385 14.1652 132.163 14.4607C131.947 14.7561 131.839 15.0914 131.839 15.4664C131.828 15.7789 131.893 16.0516 132.036 16.2846C132.183 16.5175 132.385 16.7192 132.641 16.8897C132.896 17.0544 133.192 17.1993 133.527 17.3243C133.862 17.4436 134.22 17.5459 134.601 17.6311L136.169 18.0061C136.93 18.1766 137.629 18.4039 138.266 18.688C138.902 18.9721 139.453 19.3215 139.919 19.7363C140.385 20.151 140.746 20.6397 141.001 21.2022C141.263 21.7647 141.396 22.4096 141.402 23.1368C141.396 24.205 141.124 25.1311 140.584 25.9152C140.05 26.6936 139.277 27.2988 138.266 27.7306C137.26 28.1567 136.047 28.3698 134.626 28.3698C133.217 28.3698 131.99 28.1539 130.945 27.7221C129.905 27.2902 129.092 26.651 128.507 25.8044C127.928 24.9522 127.624 23.8982 127.595 22.6425H131.166C131.206 23.2277 131.374 23.7164 131.669 24.1084C131.97 24.4948 132.371 24.7874 132.871 24.9863C133.376 25.1794 133.947 25.276 134.584 25.276C135.209 25.276 135.751 25.1851 136.212 25.0033C136.678 24.8215 137.038 24.5686 137.294 24.2448C137.55 23.9209 137.678 23.5488 137.678 23.1283C137.678 22.7363 137.561 22.4067 137.328 22.1397C137.101 21.8726 136.766 21.6453 136.322 21.4578C135.885 21.2703 135.348 21.0999 134.712 20.9465L132.811 20.4692C131.339 20.1113 130.178 19.5516 129.325 18.7902C128.473 18.0289 128.05 17.0033 128.055 15.7135C128.05 14.6567 128.331 13.7334 128.899 12.9436C129.473 12.1539 130.26 11.5374 131.26 11.0942C132.26 10.651 133.396 10.4294 134.669 10.4294C135.964 10.4294 137.095 10.651 138.061 11.0942C139.033 11.5374 139.788 12.1539 140.328 12.9436C140.868 13.7334 141.146 14.6482 141.163 15.688H137.626ZM150.779 15.0317V17.759H142.896V15.0317H150.779ZM144.685 11.8953H148.316V24.0999C148.316 24.4351 148.367 24.6965 148.469 24.884C148.572 25.0658 148.714 25.1936 148.896 25.2675C149.083 25.3414 149.299 25.3783 149.543 25.3783C149.714 25.3783 149.884 25.3641 150.055 25.3357C150.225 25.3016 150.356 25.276 150.447 25.259L151.018 27.9607C150.836 28.0175 150.58 28.0828 150.251 28.1567C149.921 28.2363 149.521 28.2846 149.049 28.3016C148.174 28.3357 147.407 28.2192 146.748 27.9522C146.094 27.6851 145.586 27.2703 145.222 26.7078C144.859 26.1453 144.68 25.4351 144.685 24.5772V11.8953ZM158.918 28.3783C157.594 28.3783 156.45 28.0971 155.484 27.5346C154.523 26.9664 153.782 26.1766 153.259 25.1652C152.737 24.1482 152.475 22.9692 152.475 21.6283C152.475 20.276 152.737 19.0942 153.259 18.0828C153.782 17.0658 154.523 16.276 155.484 15.7135C156.45 15.1453 157.594 14.8613 158.918 14.8613C160.242 14.8613 161.384 15.1453 162.344 15.7135C163.31 16.276 164.055 17.0658 164.577 18.0828C165.1 19.0942 165.362 20.276 165.362 21.6283C165.362 22.9692 165.1 24.1482 164.577 25.1652C164.055 26.1766 163.31 26.9664 162.344 27.5346C161.384 28.0971 160.242 28.3783 158.918 28.3783ZM158.935 25.5658C159.538 25.5658 160.04 25.3953 160.444 25.0544C160.847 24.7078 161.151 24.2363 161.356 23.6397C161.566 23.0431 161.671 22.3641 161.671 21.6027C161.671 20.8414 161.566 20.1624 161.356 19.5658C161.151 18.9692 160.847 18.4976 160.444 18.151C160.04 17.8044 159.538 17.6311 158.935 17.6311C158.327 17.6311 157.816 17.8044 157.401 18.151C156.992 18.4976 156.683 18.9692 156.472 19.5658C156.268 20.1624 156.165 20.8414 156.165 21.6027C156.165 22.3641 156.268 23.0431 156.472 23.6397C156.683 24.2363 156.992 24.7078 157.401 25.0544C157.816 25.3953 158.327 25.5658 158.935 25.5658ZM167.722 28.1226V15.0317H171.242V17.3158H171.379C171.617 16.5033 172.018 15.8897 172.58 15.4749C173.143 15.0544 173.79 14.8442 174.523 14.8442C174.705 14.8442 174.901 14.8556 175.112 14.8783C175.322 14.901 175.506 14.9323 175.665 14.9721V18.1936C175.495 18.1425 175.259 18.0971 174.958 18.0573C174.657 18.0175 174.381 17.9976 174.131 17.9976C173.597 17.9976 173.12 18.1141 172.7 18.3471C172.285 18.5743 171.955 18.8925 171.711 19.3016C171.472 19.7107 171.353 20.1823 171.353 20.7164V28.1226H167.722ZM182.899 28.3783C181.553 28.3783 180.393 28.1056 179.422 27.5601C178.456 27.009 177.712 26.2306 177.189 25.2249C176.666 24.2135 176.405 23.0175 176.405 21.6368C176.405 20.2902 176.666 19.1084 177.189 18.0914C177.712 17.0743 178.447 16.2817 179.396 15.7135C180.351 15.1453 181.47 14.8613 182.754 14.8613C183.618 14.8613 184.422 15.0005 185.166 15.2789C185.916 15.5516 186.57 15.9635 187.126 16.5147C187.689 17.0658 188.126 17.759 188.439 18.5942C188.751 19.4238 188.908 20.3953 188.908 21.509V22.5061H177.854V20.2561H185.49C185.49 19.7334 185.376 19.2703 185.149 18.8669C184.922 18.4635 184.607 18.1482 184.203 17.9209C183.805 17.688 183.342 17.5715 182.814 17.5715C182.263 17.5715 181.774 17.6993 181.348 17.955C180.928 18.205 180.598 18.5431 180.359 18.9692C180.121 19.3897 179.999 19.8584 179.993 20.3755V22.5147C179.993 23.1624 180.112 23.7221 180.351 24.1936C180.595 24.6652 180.939 25.0289 181.382 25.2846C181.825 25.5402 182.351 25.6681 182.959 25.6681C183.362 25.6681 183.732 25.6113 184.067 25.4976C184.402 25.384 184.689 25.2135 184.928 24.9863C185.166 24.759 185.348 24.4806 185.473 24.151L188.831 24.3726C188.661 25.1794 188.311 25.884 187.783 26.4863C187.26 27.0828 186.584 27.5488 185.754 27.884C184.93 28.2135 183.979 28.3783 182.899 28.3783Z" fill="black"/>
<path d="M177.148 12.0746C176.757 12.0746 176.42 11.9917 176.138 11.826C175.858 11.6586 175.643 11.4266 175.492 11.13C175.343 10.8333 175.268 10.492 175.268 10.1058C175.268 9.71473 175.344 9.37169 175.495 9.0767C175.647 8.78007 175.863 8.54889 176.143 8.38317C176.424 8.21579 176.757 8.1321 177.143 8.1321C177.476 8.1321 177.768 8.19259 178.018 8.31357C178.268 8.43454 178.466 8.6044 178.612 8.82315C178.758 9.0419 178.838 9.29877 178.853 9.59375H177.854C177.826 9.40317 177.751 9.24988 177.63 9.13388C177.511 9.01622 177.354 8.95739 177.16 8.95739C176.996 8.95739 176.853 9.00213 176.73 9.09162C176.609 9.17945 176.515 9.30788 176.447 9.47692C176.379 9.64595 176.345 9.85062 176.345 10.0909C176.345 10.3345 176.378 10.5417 176.444 10.7124C176.512 10.883 176.607 11.0131 176.73 11.1026C176.853 11.1921 176.996 11.2369 177.16 11.2369C177.281 11.2369 177.39 11.212 177.486 11.1623C177.584 11.1126 177.664 11.0405 177.727 10.946C177.792 10.8499 177.834 10.7347 177.854 10.6005H178.853C178.836 10.8922 178.757 11.149 178.614 11.3711C178.473 11.5915 178.279 11.7638 178.03 11.8881C177.782 12.0124 177.487 12.0746 177.148 12.0746ZM181.256 12.0746C180.87 12.0746 180.536 11.9925 180.254 11.8285C179.974 11.6628 179.758 11.4324 179.606 11.1374C179.453 10.8408 179.377 10.4969 179.377 10.1058C179.377 9.71141 179.453 9.36671 179.606 9.07173C179.758 8.77509 179.974 8.54474 180.254 8.38068C180.536 8.21496 180.87 8.1321 181.256 8.1321C181.642 8.1321 181.975 8.21496 182.255 8.38068C182.537 8.54474 182.754 8.77509 182.907 9.07173C183.059 9.36671 183.135 9.71141 183.135 10.1058C183.135 10.4969 183.059 10.8408 182.907 11.1374C182.754 11.4324 182.537 11.6628 182.255 11.8285C181.975 11.9925 181.642 12.0746 181.256 12.0746ZM181.261 11.2543C181.437 11.2543 181.583 11.2045 181.701 11.1051C181.819 11.004 181.907 10.8665 181.967 10.6925C182.028 10.5185 182.059 10.3204 182.059 10.0984C182.059 9.8763 182.028 9.67827 181.967 9.50426C181.907 9.33026 181.819 9.19271 181.701 9.09162C181.583 8.99053 181.437 8.93999 181.261 8.93999C181.084 8.93999 180.935 8.99053 180.814 9.09162C180.694 9.19271 180.604 9.33026 180.543 9.50426C180.483 9.67827 180.453 9.8763 180.453 10.0984C180.453 10.3204 180.483 10.5185 180.543 10.6925C180.604 10.8665 180.694 11.004 180.814 11.1051C180.935 11.2045 181.084 11.2543 181.261 11.2543ZM183.824 12V8.18182H184.833V8.85547H184.878C184.957 8.63175 185.09 8.45526 185.276 8.32599C185.461 8.19673 185.683 8.1321 185.942 8.1321C186.204 8.1321 186.427 8.19756 186.611 8.32848C186.794 8.45774 186.917 8.6334 186.978 8.85547H187.018C187.096 8.63672 187.237 8.46188 187.441 8.33097C187.646 8.19839 187.889 8.1321 188.169 8.1321C188.525 8.1321 188.815 8.24562 189.037 8.47266C189.26 8.69803 189.372 9.01787 189.372 9.43217V12H188.316V9.64098C188.316 9.42886 188.259 9.26977 188.147 9.16371C188.034 9.05765 187.893 9.00462 187.724 9.00462C187.532 9.00462 187.382 9.06593 187.274 9.18857C187.167 9.30954 187.113 9.46946 187.113 9.66832V12H186.086V9.61861C186.086 9.43134 186.032 9.2822 185.924 9.17116C185.818 9.06013 185.678 9.00462 185.504 9.00462C185.387 9.00462 185.281 9.03445 185.186 9.09411C185.093 9.15211 185.02 9.23414 184.965 9.3402C184.91 9.4446 184.883 9.56723 184.883 9.7081V12H183.824Z" fill="#634C9F"/>
</svg>
