<svg width="45" height="40" viewBox="0 0 45 40" fill="none" xmlns="http://www.w3.org/2000/svg">
<g id="g10">
<path id="path26" d="M22.3583 40C31.1712 40 38.3154 32.8558 38.3154 24.0429V12.0826C38.3154 8.52613 35.4689 5.64314 31.9575 5.64314H12.7591C9.24765 5.64314 6.40115 8.52613 6.40115 12.0826V24.0429C6.40115 32.8557 13.5454 40 22.3583 40Z" fill="#634C9F"/>
<path id="path28" d="M15.0293 24.7355C15.3618 26.2507 16.3592 28.2709 17.5228 28.6076C24.2063 30.9155 31.3065 30.8333 38.3157 30.9305V12.0826C38.3157 8.52613 35.4692 5.64313 31.9577 5.64313H12.7593C10.8628 5.64313 9.16147 6.4851 7.9967 7.81885C13.5007 11.2115 13.3095 18.7178 15.0293 24.7355Z" fill="#FACC15"/>
<path id="path30" d="M36.7976 31.8674C36.6699 31.8674 36.5415 31.8622 36.4123 31.8516L20.0381 30.4978C17.5265 30.29 15.4061 28.4928 14.7617 26.0256L11.5694 13.8047C11.0034 11.6317 10.4179 9.38494 7.9167 8.70426L0.79662 7.22168C0.257208 7.10939 -0.090377 6.57535 0.0206638 6.02886C0.131538 5.48236 0.659649 5.13048 1.1984 5.24278L8.39926 6.74371C12.0463 7.71582 12.8854 10.9372 13.4982 13.2894L13.5391 13.4466L16.6901 25.5089C17.1188 27.1503 18.5294 28.3458 20.2003 28.4842L36.5747 29.838C37.8766 29.9457 39.0729 29.0982 39.4202 27.8234L42.4368 16.7485L21.5278 15.0088C21.0755 14.9716 20.6488 15.1506 20.3559 15.5009C20.063 15.8515 19.9588 16.3076 20.07 16.7527L21.0032 20.4908C21.3117 21.7262 22.36 22.6421 23.612 22.7699L33.4695 23.776C33.9729 23.8274 34.4327 23.5238 34.5906 23.0384C34.6927 22.7239 34.6486 22.3847 34.4694 22.1077C34.2901 21.8308 34.0005 21.6543 33.6748 21.6239L25.3966 20.8484C24.8483 20.797 24.4448 20.3051 24.4955 19.7495C24.5462 19.1941 25.0293 18.7851 25.5805 18.8367L33.8587 19.6121C34.7927 19.6997 35.6234 20.2056 36.1377 21.0003C36.6518 21.7947 36.7785 22.7682 36.4851 23.6704C36.0321 25.0633 34.7081 25.9334 33.2696 25.7861L23.412 24.7799C21.328 24.5673 19.5828 23.0426 19.0693 20.9861L18.1361 17.248C17.865 16.1626 18.1193 15.0501 18.8336 14.1957C19.5479 13.3411 20.5893 12.9042 21.6911 12.9952L45 14.9346L41.3431 28.3606C40.7758 30.4431 38.9001 31.8672 36.7976 31.8674Z" fill="#634C9F"/>
<path id="path32" d="M22.3701 34.3559C22.3701 35.8747 21.1545 37.1059 19.6549 37.1059C18.1555 37.1059 16.9399 35.8747 16.9399 34.3559C16.9399 32.8371 18.1555 31.6061 19.6549 31.6061C21.1545 31.6061 22.3701 32.8371 22.3701 34.3559Z" fill="#DC2626"/>
<path id="path34" d="M35.8678 35.1918C35.8678 36.1095 35.1334 36.8534 34.2275 36.8534C33.3215 36.8534 32.5871 36.1095 32.5871 35.1918C32.5871 34.2743 33.3215 33.5304 34.2275 33.5304C35.1334 33.5304 35.8678 34.2743 35.8678 35.1918Z" fill="#DC2626"/>
<path id="path36" d="M19.5174 9.91981C19.5174 11.2525 18.4507 12.3329 17.1348 12.3329C15.819 12.3329 14.7521 11.2525 14.7521 9.91981C14.7521 8.58707 15.819 7.50654 17.1348 7.50654C18.4507 7.50654 19.5174 8.58707 19.5174 9.91981Z" fill="#F25321"/>
<path id="path38" d="M23.9357 4.13936C23.9357 5.94098 22.4938 7.40133 20.715 7.40133C18.9363 7.40133 17.4943 5.94098 17.4943 4.13936C17.4943 2.33791 18.9363 0.877384 20.715 0.877384C22.4938 0.877384 23.9357 2.33791 23.9357 4.13936Z" fill="#634C9F"/>
<path id="path40" d="M23.1551 9.1154C23.1551 9.74557 22.6508 10.2565 22.0284 10.2565C21.4062 10.2565 20.9017 9.74557 20.9017 9.1154C20.9017 8.48523 21.4062 7.97425 22.0284 7.97425C22.6508 7.97425 23.1551 8.48523 23.1551 9.1154Z" fill="#634C9F"/>
<path id="path42" d="M30.1477 5.79499C30.1477 7.25164 28.9816 8.43252 27.5434 8.43252C26.1051 8.43252 24.9393 7.25164 24.9393 5.79499C24.9393 4.33818 26.1051 3.1573 27.5434 3.1573C28.9816 3.1573 30.1477 4.33818 30.1477 5.79499Z" fill="#F25321"/>
<path id="path44" d="M32.6478 10.7475C32.6478 11.9331 31.6988 12.8941 30.5284 12.8941C29.3578 12.8941 28.409 11.9331 28.409 10.7475C28.409 9.56206 29.3578 8.60089 30.5284 8.60089C31.6988 8.60089 32.6478 9.56206 32.6478 10.7475Z" fill="#F25321"/>
<path id="path46" d="M41.6451 11.6876C41.6451 12.8732 40.6961 13.8342 39.5257 13.8342C38.3551 13.8342 37.4062 12.8732 37.4062 11.6876C37.4062 10.5022 38.3551 9.54101 39.5257 9.54101C40.6961 9.54101 41.6451 10.5022 41.6451 11.6876Z" fill="#634C9F"/>
<path id="path48" d="M26.9133 11.1263C26.9133 11.9167 26.2808 12.5573 25.5004 12.5573C24.7201 12.5573 24.0874 11.9167 24.0874 11.1263C24.0874 10.336 24.7201 9.69522 25.5004 9.69522C26.2808 9.69522 26.9133 10.336 26.9133 11.1263Z" fill="#634C9F"/>
<path id="path50" d="M35.4736 5.93525C35.4736 6.92705 34.6797 7.73114 33.7004 7.73114C32.7214 7.73114 31.9273 6.92705 31.9273 5.93525C31.9273 4.94344 32.7214 4.13935 33.7004 4.13935C34.6797 4.13935 35.4736 4.94344 35.4736 5.93525Z" fill="#634C9F"/>
<path id="path52" d="M36.2216 11.6876C36.2216 12.4779 35.5891 13.1186 34.8087 13.1186C34.0284 13.1186 33.3957 12.4779 33.3957 11.6876C33.3957 10.8973 34.0284 10.2565 34.8087 10.2565C35.5891 10.2565 36.2216 10.8973 36.2216 11.6876Z" fill="#634C9F"/>
<path id="path54" d="M37.8579 8.43251C37.8579 9.09888 37.3245 9.63915 36.6666 9.63915C36.0086 9.63915 35.4754 9.09888 35.4754 8.43251C35.4754 7.76615 36.0086 7.22605 36.6666 7.22605C37.3245 7.22605 37.8579 7.76615 37.8579 8.43251Z" fill="#F25321"/>
</g>
</svg>
