<svg width="160" height="161" viewBox="0 0 160 161" fill="none" xmlns="http://www.w3.org/2000/svg">
<g id="SVG">
<g id="Group">
<path id="Vector" d="M1.14307 79.2471C2.28592 76.6757 4.57164 75.8186 7.42878 75.8186C22.8574 75.8186 38.2859 75.8186 54.0002 75.8186C56.2859 75.8186 58.0002 76.39 59.7145 78.1043C66.0002 84.6757 72.5716 90.9614 78.8574 97.5329C79.1431 97.8186 79.4288 98.39 80.0002 98.9614C80.5716 98.39 81.1431 97.8186 81.4288 97.5329C88.0002 90.9614 94.5716 84.6757 100.857 78.1043C102.286 76.6757 104 76.1043 106 76.1043C122 76.1043 137.714 76.1043 153.714 76.1043C156 76.1043 158 76.6757 158.857 78.9614C159.714 81.2471 158.857 82.9614 157.143 84.6757C150 91.8186 142.857 98.9614 135.429 106.104C134.572 106.961 134.286 107.819 134.286 108.961C134.286 123.819 134.286 138.676 134.286 153.533C134.286 156.39 133.429 158.39 130.572 159.533C96.8574 159.533 63.1431 159.533 29.4288 159.533C26.5716 158.39 25.7145 156.39 25.7145 153.533C25.7145 138.676 25.7145 123.819 25.7145 108.676C25.7145 107.533 25.4288 106.676 24.5716 106.104C17.7145 99.2471 10.8574 92.39 4.00021 85.5329C2.85735 84.39 2.00021 83.2471 1.14307 81.8186C1.14307 80.6757 1.14307 80.1043 1.14307 79.2471ZM35.1431 109.819C35.1431 123.247 35.1431 136.676 35.1431 149.819C48.5716 149.819 62.0002 149.819 75.1431 149.819C75.1431 136.39 75.1431 122.961 75.1431 109.819C62.0002 109.819 48.5716 109.819 35.1431 109.819ZM124.857 109.819C111.429 109.819 98.0002 109.819 84.8574 109.819C84.8574 123.247 84.8574 136.676 84.8574 149.819C98.2859 149.819 111.714 149.819 124.857 149.819C124.857 136.39 124.857 123.247 124.857 109.819ZM68.8574 100.39C63.7145 95.2471 58.8574 90.39 53.7145 85.5329C53.4288 85.2471 52.5716 84.9614 52.0002 84.9614C40.8574 84.9614 29.4288 84.9614 18.2859 84.9614C18.0002 84.9614 17.4288 84.9614 16.8574 84.9614C21.7145 89.8186 26.5716 94.6757 31.1431 99.2471C32.0002 100.104 32.5716 100.39 33.7145 100.39C44.5716 100.39 55.7145 100.39 66.5716 100.39C67.4288 100.39 68.0002 100.39 68.8574 100.39ZM91.4288 100.39C92.0002 100.39 92.2859 100.39 92.5716 100.39C104 100.39 115.429 100.39 126.857 100.39C127.429 100.39 128 100.104 128.572 99.5329C133.143 94.9614 137.714 90.39 142.286 85.8186C142.572 85.5329 142.857 85.2471 143.143 84.9614C142.857 84.9614 142.857 84.9614 142.572 84.9614C130.857 84.9614 119.429 84.9614 107.714 84.9614C107.143 84.9614 106.572 85.2471 106.286 85.5329C101.143 90.39 96.2859 95.2471 91.4288 100.39Z" fill="black"/>
<path id="Vector_2" d="M84.5715 71.5329C84.5715 72.6757 84.5715 73.8186 84.5715 74.6757C84.5715 77.5329 82.8572 79.8186 80.0001 79.8186C77.4287 79.8186 75.4287 77.8186 75.1429 74.9614C74.8572 66.9614 74.0001 58.9614 72.0001 51.2471C70.5715 44.9614 68.2858 38.9614 64.5715 33.5329C60.2858 27.8186 54.8572 24.6757 47.7144 25.5329C42.8572 26.1043 39.1429 28.1043 37.7144 32.9614C36.2858 37.8186 38.0001 41.8186 41.7144 45.2471C45.7144 48.6757 50.5715 50.1043 55.4287 50.6757C56.8572 50.9614 58.2858 50.9614 60.0001 50.9614C62.5715 50.9614 64.2858 52.9614 64.5715 55.2471C64.8572 57.5329 62.8572 60.1043 60.5715 60.1043C49.7144 60.1043 39.7144 57.8186 32.5715 48.9614C27.7144 42.6757 26.5715 35.8186 29.7144 28.39C32.8572 21.2471 38.8572 17.5329 46.5715 16.6757C57.7144 15.2471 66.2858 19.8186 72.5715 28.9614C77.4287 35.8186 80.0001 43.5329 81.7144 51.5329C83.1429 58.1043 84.0001 64.9614 84.5715 71.5329Z" fill="black"/>
<path id="Vector_3" d="M97.7147 60.39C96.8576 60.39 96.0004 60.39 95.1433 60.39C92.2861 60.39 90.2861 58.39 90.2861 55.8186C90.2861 53.2471 92.2861 51.2471 95.1433 51.2471C100.572 51.2471 106 50.6757 111.143 48.6757C114.572 47.2471 117.429 45.5329 120 42.9614C128.858 33.8186 126 21.5329 113.715 17.8186C110.858 16.9614 108 16.6757 105.143 16.39C102.286 16.1043 100 14.1043 100.286 11.5329C100.286 8.96143 102.572 6.96143 105.429 6.96143C111.429 6.96143 117.429 8.10428 122.572 11.5329C135.715 19.5329 138.286 36.6757 128 48.1043C122.286 54.39 115.143 57.8186 106.858 59.5329C103.715 59.8186 100.858 60.1043 97.7147 60.39Z" fill="black"/>
<path id="Vector_4" d="M84.8574 4.67571C85.7146 3.81857 86.286 3.24714 87.1431 2.67571C89.1431 1.24714 91.4288 1.24714 93.1431 2.96142C94.8574 4.67571 95.1431 7.24714 93.7146 8.96143C92.0003 10.9614 90.0003 12.9614 88.0003 14.9614C86.286 16.39 83.7146 16.1043 82.286 14.6757C80.5717 12.9614 78.8574 11.2471 77.1431 9.53285C75.4289 7.53285 75.4289 4.96143 77.1431 3.24714C78.8574 1.53285 81.4289 1.24714 83.4289 2.96142C83.7146 3.24714 84.286 3.81857 84.8574 4.67571Z" fill="black"/>
</g>
</g>
</svg>
