<svg width="564" height="376" viewBox="0 0 564 376" fill="none" xmlns="http://www.w3.org/2000/svg">
<g clip-path="url(#clip0_506_15)">
<path d="M564 0H0V376H564V0Z" fill="white"/>
<path d="M277.817 114.496H189.577C188.246 114.496 187.166 113.417 187.166 112.085V60.6948C187.166 59.363 188.245 58.2838 189.577 58.2838H277.817C279.148 58.2838 280.228 59.363 280.228 60.6948V112.086C280.228 113.417 279.148 114.496 277.817 114.496Z" stroke="#C0CCD8" stroke-width="0.752" stroke-miterlimit="10"/>
<path d="M187.166 68.4697H280.228" stroke="#C0CCD8" stroke-width="0.752" stroke-miterlimit="10"/>
<path d="M193.177 64.9202C193.998 64.9202 194.664 64.2543 194.664 63.4328C194.664 62.6113 193.998 61.9453 193.177 61.9453C192.355 61.9453 191.689 62.6113 191.689 63.4328C191.689 64.2543 192.355 64.9202 193.177 64.9202Z" stroke="#C0CCD8" stroke-width="0.752" stroke-miterlimit="10"/>
<path d="M200.784 63.4328C200.784 64.254 200.119 64.9202 199.297 64.9202C198.475 64.9202 197.81 64.254 197.81 63.4328C197.81 62.6116 198.475 61.9453 199.297 61.9453C200.118 61.9453 200.784 62.6116 200.784 63.4328Z" stroke="#C0CCD8" stroke-width="0.752" stroke-miterlimit="10"/>
<path d="M206.903 63.4328C206.903 64.254 206.237 64.9202 205.415 64.9202C204.594 64.9202 203.928 64.254 203.928 63.4328C203.928 62.6116 204.593 61.9453 205.415 61.9453C206.236 61.9453 206.903 62.6116 206.903 63.4328Z" stroke="#C0CCD8" stroke-width="0.752" stroke-miterlimit="10"/>
<path d="M138.348 120.376H160.354C162.48 120.376 164.204 118.653 164.204 116.526V94.5204C164.204 92.3938 162.481 90.6702 160.354 90.6702H138.348C136.222 90.6702 134.498 92.3938 134.498 94.5204V116.526C134.499 118.653 136.222 120.376 138.348 120.376Z" stroke="#C0CCD8" stroke-width="0.752" stroke-miterlimit="10" stroke-linejoin="round"/>
<path d="M149.352 114.032C154.051 114.032 157.86 110.223 157.86 105.524C157.86 100.825 154.051 97.0155 149.352 97.0155C144.653 97.0155 140.844 100.825 140.844 105.524C140.844 110.223 144.653 114.032 149.352 114.032Z" stroke="#C0CCD8" stroke-width="2.256" stroke-miterlimit="10"/>
<path d="M155.096 99.5175L143.084 111.53" stroke="#C0CCD8" stroke-width="2.256" stroke-miterlimit="10"/>
<path d="M361.139 113.619L354.978 107.234H260.161C255.724 107.234 252.127 103.638 252.127 99.2009V49.9028C252.127 45.466 255.724 41.8691 260.161 41.8691H355.403C359.84 41.8691 363.436 45.466 363.436 49.9028V112.691C363.437 113.893 361.974 114.484 361.139 113.619Z" fill="white" stroke="#C0CCD8" stroke-width="0.752" stroke-miterlimit="10" stroke-linejoin="round"/>
<path d="M290.24 85.1941H286.161V92.3644H276.28V85.1941H261.509V77.8463L276.913 55.3224H286.16V77.7192H290.239V85.1941H290.24ZM276.28 77.7207V73.4133C276.28 72.6026 276.309 71.5092 276.368 70.1323C276.427 68.7561 276.474 68.0342 276.507 67.9665H276.228C275.654 69.2675 275.003 70.4835 274.278 71.6152L270.173 77.7215L276.28 77.7207Z" fill="#F76652"/>
<path d="M321.109 73.8946C321.109 80.4482 320.01 85.2498 317.815 88.2984C315.62 91.347 312.257 92.8713 307.732 92.8713C303.306 92.8713 299.97 91.2793 297.723 88.0953C295.477 84.9114 294.354 80.1775 294.354 73.8946C294.354 67.307 295.452 62.4769 297.648 59.4028C299.843 56.3286 303.206 54.7915 307.732 54.7915C312.14 54.7915 315.472 56.3925 317.727 59.5923C319.981 62.7935 321.109 67.5605 321.109 73.8946ZM304.311 73.8946C304.311 78.084 304.573 80.9634 305.097 82.5343C305.619 84.1052 306.499 84.8903 307.732 84.8903C308.982 84.8903 309.864 84.0797 310.379 82.4583C310.894 80.837 311.151 77.9824 311.151 73.8946C311.151 69.7901 310.889 66.9145 310.366 65.2676C309.843 63.6215 308.964 62.7973 307.731 62.7973C306.498 62.7973 305.619 63.5914 305.096 65.1789C304.573 66.7671 304.311 69.6721 304.311 73.8946Z" fill="#F76652"/>
<path d="M354.054 85.1941H349.975V92.3644H340.094V85.1941H325.322V77.8463L340.726 55.3224H349.974V77.7192H354.053L354.054 85.1941ZM340.094 77.7207V73.4133C340.094 72.6026 340.123 71.5092 340.183 70.1323C340.241 68.7561 340.288 68.0342 340.322 67.9665H340.043C339.469 69.2675 338.818 70.4835 338.092 71.6152L333.988 77.7215L340.094 77.7207Z" fill="#F76652"/>
<path d="M450.483 206.866H472.489C474.615 206.866 476.339 205.143 476.339 203.016V181.01C476.339 178.884 474.615 177.16 472.489 177.16H450.483C448.356 177.16 446.633 178.884 446.633 181.01V203.016C446.634 205.143 448.357 206.866 450.483 206.866Z" stroke="#C0CCD8" stroke-width="0.752" stroke-miterlimit="10" stroke-linejoin="round"/>
<path d="M471.061 200.355C470.948 200.395 470.828 200.416 470.705 200.416L452.268 200.423C451.883 200.423 451.524 200.216 451.332 199.882C451.139 199.549 451.139 199.135 451.331 198.801L460.545 182.831C460.736 182.498 461.094 182.29 461.48 182.29C461.865 182.289 462.224 182.497 462.416 182.83L471.641 198.794C471.834 199.127 471.834 199.542 471.642 199.876C471.51 200.103 471.302 200.271 471.061 200.355ZM452.776 199.049L470.197 199.042L461.481 183.958L452.776 199.049Z" fill="#C0CCD8"/>
<path d="M461.485 195.874C461.136 195.874 460.849 195.6 460.833 195.251L460.46 188.967C460.434 188.384 460.899 187.897 461.483 187.897C462.066 187.897 462.532 188.384 462.506 188.966L462.138 195.251C462.121 195.599 461.835 195.874 461.485 195.874Z" fill="#C0CCD8"/>
<path d="M462.15 197.39C462.15 197.757 461.853 198.054 461.485 198.054C461.118 198.054 460.82 197.757 460.82 197.39C460.82 197.023 461.117 196.726 461.485 196.726C461.852 196.726 462.15 197.023 462.15 197.39Z" fill="#C0CCD8"/>
<path d="M72.5247 153.786C72.5247 154.711 71.7742 155.461 70.8493 155.461C69.9236 155.461 69.1738 154.71 69.1738 153.786C69.1738 152.86 69.9243 152.11 70.8493 152.11C71.775 152.11 72.5247 152.86 72.5247 153.786Z" stroke="#C0CCD8" stroke-width="0.752" stroke-miterlimit="10" stroke-linecap="round" stroke-linejoin="round"/>
<path d="M354.055 243.132C354.055 244.058 353.305 244.808 352.38 244.808C351.454 244.808 350.704 244.057 350.704 243.132C350.704 242.206 351.455 241.457 352.38 241.457C353.305 241.456 354.055 242.206 354.055 243.132Z" stroke="#C0CCD8" stroke-width="0.752" stroke-miterlimit="10" stroke-linecap="round" stroke-linejoin="round"/>
<path d="M469.204 105.524C469.204 106.449 468.454 107.199 467.529 107.199C466.604 107.199 465.854 106.449 465.854 105.524C465.854 104.598 466.604 103.848 467.529 103.848C468.454 103.848 469.204 104.598 469.204 105.524Z" stroke="#C0CCD8" stroke-width="0.752" stroke-miterlimit="10" stroke-linecap="round" stroke-linejoin="round"/>
<path d="M378.754 53.6959C378.754 54.6216 378.004 55.3714 377.079 55.3714C376.153 55.3714 375.403 54.6209 375.403 53.6959C375.403 52.7702 376.154 52.0204 377.079 52.0204C378.004 52.0204 378.754 52.7709 378.754 53.6959Z" stroke="#C0CCD8" stroke-width="0.752" stroke-miterlimit="10" stroke-linecap="round" stroke-linejoin="round"/>
<path d="M465.853 160.329V165.518" stroke="#C0CCD8" stroke-width="0.752" stroke-miterlimit="10" stroke-linecap="round" stroke-linejoin="round"/>
<path d="M468.447 162.924H463.258" stroke="#C0CCD8" stroke-width="0.752" stroke-miterlimit="10" stroke-linecap="round" stroke-linejoin="round"/>
<path d="M330.204 260.298V265.488" stroke="#C0CCD8" stroke-width="0.752" stroke-miterlimit="10" stroke-linecap="round" stroke-linejoin="round"/>
<path d="M332.798 262.892H327.608" stroke="#C0CCD8" stroke-width="0.752" stroke-miterlimit="10" stroke-linecap="round" stroke-linejoin="round"/>
<path d="M220.459 44.1251V49.3139" stroke="#C0CCD8" stroke-width="0.752" stroke-miterlimit="10" stroke-linecap="round" stroke-linejoin="round"/>
<path d="M223.053 46.7195H217.863" stroke="#C0CCD8" stroke-width="0.752" stroke-miterlimit="10" stroke-linecap="round" stroke-linejoin="round"/>
<path d="M104.3 94.282V99.4708" stroke="#C0CCD8" stroke-width="0.752" stroke-miterlimit="10" stroke-linecap="round" stroke-linejoin="round"/>
<path d="M106.894 96.8764H101.705" stroke="#C0CCD8" stroke-width="0.752" stroke-miterlimit="10" stroke-linecap="round" stroke-linejoin="round"/>
<path d="M95.8545 213.755V218.944" stroke="#C0CCD8" stroke-width="0.752" stroke-miterlimit="10" stroke-linecap="round" stroke-linejoin="round"/>
<path d="M98.4483 216.35H93.2588" stroke="#C0CCD8" stroke-width="0.752" stroke-miterlimit="10" stroke-linecap="round" stroke-linejoin="round"/>
<path d="M390 73.505V78.6946" stroke="#C0CCD8" stroke-width="0.752" stroke-miterlimit="10" stroke-linecap="round" stroke-linejoin="round"/>
<path d="M392.594 76.1002H387.404" stroke="#C0CCD8" stroke-width="0.752" stroke-miterlimit="10" stroke-linecap="round" stroke-linejoin="round"/>
<path d="M134.459 184.211H82.533C81.6261 184.211 80.8906 183.476 80.8906 182.569C80.8906 181.662 81.6261 180.927 82.533 180.927H134.459C135.366 180.927 136.102 181.662 136.102 182.569C136.102 183.476 135.367 184.211 134.459 184.211Z" stroke="#C0CCD8" stroke-width="0.752" stroke-miterlimit="10"/>
<path d="M440.196 142.745H388.27C387.363 142.745 386.628 142.01 386.628 141.103C386.628 140.196 387.363 139.461 388.27 139.461H440.196C441.103 139.461 441.838 140.196 441.838 141.103C441.838 142.01 441.104 142.745 440.196 142.745Z" stroke="#C0CCD8" stroke-width="0.752" stroke-miterlimit="10"/>
<path d="M447.797 153.786H428.602C428.149 153.786 427.781 153.418 427.781 152.964C427.781 152.511 428.149 152.143 428.602 152.143H447.797C448.251 152.143 448.618 152.511 448.618 152.964C448.618 153.418 448.251 153.786 447.797 153.786Z" fill="#C0CCD8"/>
<path d="M397 114.655H377.806C377.352 114.655 376.984 114.288 376.984 113.834C376.984 113.381 377.352 113.013 377.806 113.013H397C397.454 113.013 397.822 113.381 397.822 113.834C397.822 114.288 397.454 114.655 397 114.655Z" fill="#C0CCD8"/>
<path d="M115.162 169.694H100.479C100.026 169.694 99.6582 169.326 99.6582 168.873C99.6582 168.42 100.026 168.052 100.479 168.052H115.162C115.616 168.052 115.983 168.42 115.983 168.873C115.983 169.326 115.616 169.694 115.162 169.694Z" fill="#C0CCD8"/>
<path d="M411.533 97.2179H427.43C428.966 97.2179 430.211 95.9726 430.211 94.4362V78.5389C430.211 77.0026 428.965 75.7573 427.43 75.7573H411.533C409.996 75.7573 408.751 77.0026 408.751 78.5389V94.4362C408.751 95.9726 409.996 97.2179 411.533 97.2179Z" stroke="#C0CCD8" stroke-width="0.752" stroke-miterlimit="10" stroke-linejoin="round"/>
<path d="M422.52 85.5821L422.147 87.4253H424.198V89.0624H421.838L421.227 92.2877H419.478L420.098 89.0624H417.839L417.236 92.2877H415.528L416.116 89.0624H414.225V87.4253H416.425L416.798 85.5821H414.796V83.9217H417.092L417.703 80.6888H419.443L418.832 83.9217H421.122L421.741 80.6888H423.449L422.83 83.9217H424.737V85.5821H422.52ZM418.148 87.4253H420.422L420.796 85.5821H418.522L418.148 87.4253Z" fill="#C0CCD8"/>
<path d="M238.761 245.694L223.685 146.81H155.781L172.058 251.591C173.161 258.692 179.082 263.69 186.388 263.69H300.566L301.406 254.09H248.674C243.61 254.09 239.511 250.618 238.761 245.694Z" fill="#475577"/>
<path d="M174.493 245.694L159.975 150.471C159.648 148.324 157.86 146.811 155.652 146.811H155.519C152.426 146.811 149.896 149.706 150.363 152.712L165.724 251.592C166.827 258.693 172.747 263.691 180.054 263.691H253.593L254.433 254.09H184.406C179.342 254.09 175.243 250.618 174.493 245.694Z" fill="#717A91"/>
<path d="M220.457 263.69V317.667" stroke="#544943" stroke-width="1.128" stroke-miterlimit="10"/>
<path d="M190.199 322.434C190.199 319.801 192.334 317.667 194.967 317.667H245.946C248.579 317.667 250.713 319.802 250.713 322.434" stroke="#544943" stroke-width="1.128" stroke-miterlimit="10"/>
<path d="M215.24 322.434C215.24 319.801 217.375 317.667 220.008 317.667" stroke="#544943" stroke-width="1.128" stroke-miterlimit="10"/>
<path d="M195.01 327.249C195.01 329.908 192.855 332.063 190.196 332.063C187.537 332.063 185.382 329.908 185.382 327.249C185.382 324.59 187.537 322.435 190.196 322.435C192.855 322.434 195.01 324.59 195.01 327.249Z" fill="#717A91"/>
<g opacity="0.45">
<path d="M191.966 327.249C191.966 328.225 191.174 329.017 190.198 329.017C189.222 329.017 188.43 328.225 188.43 327.249C188.43 326.272 189.222 325.481 190.198 325.481C191.174 325.481 191.966 326.272 191.966 327.249Z" fill="#8E9DB2"/>
</g>
<path d="M220.053 327.249C220.053 329.908 217.898 332.063 215.239 332.063C212.58 332.063 210.425 329.908 210.425 327.249C210.425 324.59 212.58 322.435 215.239 322.435C217.898 322.434 220.053 324.59 220.053 327.249Z" fill="#717A91"/>
<g opacity="0.45">
<path d="M217.008 327.249C217.008 328.226 216.216 329.017 215.24 329.017C214.263 329.017 213.472 328.225 213.472 327.249C213.472 326.272 214.264 325.481 215.24 325.481C216.216 325.48 217.008 326.272 217.008 327.249Z" fill="#8E9DB2"/>
</g>
<path d="M255.529 327.249C255.529 329.908 253.374 332.063 250.715 332.063C248.057 332.063 245.901 329.908 245.901 327.249C245.901 324.59 248.057 322.435 250.715 322.435C253.374 322.434 255.529 324.59 255.529 327.249Z" fill="#717A91"/>
<g opacity="0.45">
<path d="M252.481 327.249C252.481 328.226 251.689 329.017 250.713 329.017C249.736 329.017 248.945 328.225 248.945 327.249C248.945 326.272 249.737 325.481 250.713 325.481C251.689 325.48 252.481 326.272 252.481 327.249Z" fill="#8E9DB2"/>
</g>
<path d="M273.53 157.424L290.741 131.711L296.074 132.821C291.999 146.546 289.307 151.976 289.307 151.976" fill="#FFCBBB"/>
<path d="M293.331 137.078L296.075 132.821C296.075 132.821 301.181 131.646 303.037 130.699C304.892 129.752 306.13 128.072 306.646 126.655C307.043 125.567 306.87 122.375 306.406 122.323C305.308 122.202 303.117 126.293 302.092 126.537C301.067 126.78 297.742 126.528 295.914 126.766C292.836 127.169 291.538 130.052 291.538 130.052L288.725 135.155" fill="#FFCBBB"/>
<path d="M284.779 139.24L287.802 134.859L295.618 138.367L293.136 145.023" fill="#E6E8EF"/>
<path d="M221.987 130.074C221.987 130.074 234.73 124.212 245.955 134.197C257.18 144.181 264.775 153.459 268.896 156.461L285.805 137.009L295.252 141.444C292.761 155.532 285.771 177.999 268.666 180.312C250.159 182.814 223.023 160.003 223.023 160.003" fill="#B9B5B2"/>
<path d="M263.407 162.924L268.895 156.46" stroke="#846A6A" stroke-width="0.752" stroke-miterlimit="10"/>
<path d="M290.444 323.931L289.015 329.424C288.668 330.759 289.676 332.062 291.055 332.062H307.704C308.705 332.062 309.517 331.251 309.517 330.249C309.517 329.46 309.007 328.762 308.255 328.522L296.875 323.93" fill="#173789"/>
<path d="M280.846 238.097C278.188 266.035 290.443 323.932 290.443 323.932C290.443 323.932 293.356 327.451 296.874 323.932C296.874 323.932 299.827 268.73 302.937 243.912" fill="#FFCBBB"/>
<path d="M241.131 205.373L260.237 215.394V215.589C260.237 215.589 299.231 212.972 305.128 226.893C314.362 248.69 315.934 319.592 315.934 319.592H287.395C287.395 319.592 276.773 260.039 273.141 256.407C269.51 252.776 254.535 253.043 227.001 253.043C196.071 253.043 211.17 213.165 222.684 209.743" fill="#FCA32D"/>
<path d="M289.372 319.592C289.372 319.592 280.891 258.141 274.657 253.635C267.046 248.132 231.104 251.726 231.104 251.726" stroke="#CE680D" stroke-width="0.752" stroke-miterlimit="10"/>
<path d="M230.599 323.931L229.171 329.424C228.823 330.759 229.831 332.062 231.21 332.062H247.859C248.86 332.062 249.672 331.251 249.672 330.249C249.672 329.46 249.163 328.762 248.411 328.522L237.031 323.93" fill="#173789"/>
<path d="M233.372 238.097C230.714 266.035 230.6 323.932 230.6 323.932C230.6 323.932 233.512 327.451 237.031 323.932C237.031 323.932 247.047 268.73 250.158 243.912" fill="#FFCBBB"/>
<path d="M207.428 214.147C207.428 214.147 257.55 214.955 264.107 230.141C272.17 248.817 258.88 319.592 258.88 319.592H228.668V256.275C228.668 255.047 227.708 253.945 226.48 253.978C222.297 254.09 212.962 254.09 201.108 254.09C170.179 254.09 185.277 205.955 196.792 202.532" fill="#FFB548"/>
<path d="M207.43 214.147C207.43 214.147 257.551 214.955 264.108 230.141C266.293 235.203 267.428 243.821 266.844 254.09" stroke="#CE680D" stroke-width="0.752" stroke-miterlimit="10"/>
<path d="M232.881 319.592C232.881 319.592 233.187 256.03 231.728 252.635C229.701 247.917 222.773 250.234 206.706 250.234C175.777 250.234 188.377 205.955 199.893 202.532" stroke="#ED841B" stroke-width="0.752" stroke-miterlimit="10"/>
<path d="M188.172 221.885C188.172 221.885 204.05 222.27 206.456 219.864C208.862 217.458 206.456 206.553 206.456 206.553" stroke="#ED841B" stroke-width="0.752" stroke-miterlimit="10"/>
<path d="M187.783 224.016C187.783 224.016 205.912 224.401 208.658 221.992C211.404 219.583 208.658 208.661 208.658 208.661" stroke="#ED841B" stroke-width="0.752" stroke-miterlimit="10" stroke-dasharray="2.26 1.5"/>
<path d="M184.721 147.986C184.721 147.986 180.916 215.589 186.676 215.589C192.437 215.589 256.481 215.394 260.236 215.394C263.991 215.394 255.207 157.581 242.555 145.369C242.555 145.369 223.793 125.011 215.525 126.961C207.258 128.911 184.721 147.986 184.721 147.986Z" fill="#B9B5B2"/>
<path d="M256.171 178.735L248.219 146.135" stroke="#846A6A" stroke-width="0.752" stroke-miterlimit="10"/>
<path d="M152.324 160.229L135.113 134.515L129.78 135.625C133.855 149.35 136.547 154.781 136.547 154.781" fill="#FFCBBB"/>
<path d="M132.523 139.883L129.78 135.625C129.78 135.625 124.673 134.45 122.818 133.503C120.962 132.556 119.725 130.877 119.208 129.459C118.812 128.372 118.984 125.179 119.449 125.128C120.547 125.006 122.737 129.097 123.762 129.341C124.787 129.585 128.112 129.332 129.94 129.57C133.018 129.973 134.316 132.857 134.316 132.857L137.13 137.96" fill="#FFCBBB"/>
<path d="M141.074 142.045L138.052 137.663L130.235 141.171L132.718 147.827" fill="#E6E8EF"/>
<path d="M208.39 130.461C208.39 130.461 195.797 121.504 182.789 132.504C170.668 142.754 162.593 163.443 159.882 163.443C158 163.443 146.338 148.569 139.376 139.466L131.094 143.892C136.313 159.829 147.692 186.938 164.719 186.938C178.078 186.938 205.507 155.647 205.507 155.647" fill="#B9B5B2"/>
<path d="M183.624 176.93L203.923 160.003" stroke="#846A6A" stroke-width="0.752" stroke-miterlimit="10"/>
<path d="M209.601 132.056L221.704 145.023L223.288 130.033" fill="#E6E8EF"/>
<path d="M209.601 132.056L221.704 145.023L223.288 130.033" stroke="#846A6A" stroke-width="0.752" stroke-miterlimit="10" stroke-linejoin="round"/>
<path d="M219.321 118.967L222.725 126.428C222.725 126.428 224.097 130.703 218.421 132.639C212.202 134.762 208.388 130.46 208.388 130.46L207.49 118.752" fill="#FFCBBB"/>
<path d="M208.06 126.196C208.06 126.196 212.539 131.809 218.42 132.64L214.148 138.978C210.686 137.027 206.455 129.461 206.455 129.461L208.06 126.196Z" fill="white"/>
<path d="M222.367 125.404C222.367 125.404 221.65 129.411 218.421 132.639L223.287 136.317C224.405 133.564 224.277 129.279 224.277 129.279L222.367 125.404Z" fill="white"/>
<path d="M224.365 106.919C224.365 106.919 227.579 119.224 222.754 122.335C217.93 125.445 209.537 120.713 209.053 119.168C208.569 117.623 206.377 104.487 209.524 103.501C215.119 101.75 222.723 101.673 224.365 106.919Z" fill="#FFCBBB"/>
<path d="M224.26 110.912C224.339 111.249 224.13 111.587 223.792 111.666C223.455 111.745 223.117 111.536 223.038 111.198C222.959 110.861 223.168 110.523 223.506 110.444C223.844 110.365 224.181 110.574 224.26 110.912Z" fill="#173789"/>
<path d="M223.186 107.244C223.398 107.275 224.343 107.373 224.143 107.84C224.054 108.047 223.723 108.042 223.541 108.032C223.348 108.02 223.148 107.992 222.97 108.056C223.02 108.111 223.06 108.177 223.09 108.248C223.146 108.387 222.681 108.402 222.629 108.402C222.166 108.403 221.606 108.316 221.042 108.694C221.406 107.362 222.841 107.194 223.186 107.244Z" fill="#173789"/>
<path d="M216.528 112.614C216.547 112.96 216.843 113.226 217.189 113.206C217.535 113.187 217.801 112.891 217.781 112.544C217.762 112.198 217.466 111.933 217.12 111.952C216.774 111.973 216.509 112.268 216.528 112.614Z" fill="#173789"/>
<path d="M214.669 110.13C214.216 110.373 213.838 110.703 213.939 111.08C214.021 111.382 214.318 111.303 214.502 111.157C214.807 110.915 215.157 110.727 215.529 110.608C215.364 110.743 215.268 110.959 215.28 111.173C216.452 111.057 217.473 110.046 217.6 108.875C217.591 108.959 216.832 109.427 216.722 109.478C216.059 109.784 215.327 109.775 214.669 110.13Z" fill="#173789"/>
<path d="M221.134 111.646C221.134 111.646 222.847 115.963 222.236 116.34C221.625 116.716 219.474 116.662 219.474 116.662" stroke="#EF977F" stroke-width="0.752" stroke-miterlimit="10"/>
<path d="M221.199 123.048C221.199 123.048 216.308 124.94 212.019 121.504" stroke="#EF977F" stroke-width="0.752" stroke-miterlimit="10"/>
<path d="M218.421 120.16C218.421 120.16 218.856 118.257 221.987 118.257" stroke="#EF977F" stroke-width="0.752" stroke-miterlimit="10"/>
<path d="M227.086 100.314C227.037 99.7302 226.941 99.1068 226.54 98.6797C226.078 98.1886 225.34 98.0924 224.666 98.0878C222.307 98.0706 219.948 98.8225 218.035 100.203C218.56 99.7475 219.084 99.291 219.609 98.8338C220.025 98.4721 220.954 97.9029 220.506 97.2283C220.112 96.635 218.992 96.9719 218.421 96.9651C215.73 96.932 213.131 97.8931 210.654 98.8429C209.432 99.3114 208.201 99.7881 207.097 100.49C205.992 101.191 205.007 102.141 204.475 103.337C204.009 104.385 203.915 105.56 203.923 106.707C203.938 108.769 204.262 110.815 204.584 112.851C204.936 115.072 205.469 119.45 208.453 119.715C209.031 119.767 209.666 119.803 210.135 119.462C210.598 119.125 210.762 118.514 210.831 117.946C210.944 117.019 210.879 116.074 210.656 115.167C211.215 115.47 211.744 115.976 212.371 115.885C212.577 115.855 212.788 115.741 212.862 115.546C212.91 115.421 212.895 115.283 212.881 115.151C212.648 113.024 212.521 110.909 212.384 108.773C215.437 108.127 218.508 107.571 221.594 107.107C222.962 106.901 224.412 106.678 225.473 105.791C226.992 104.521 227.252 102.287 227.086 100.314Z" fill="#173789"/>
<path d="M211.311 115.991C210.803 114.74 209.918 113.232 208.532 114.081C208.041 114.381 207.768 115.023 207.577 115.644C206.941 117.71 208.423 120.897 210.452 120.602C211.441 120.458 211.989 119.284 212.392 118.317" fill="#FFCBBB"/>
<path d="M395.667 250.335C395.659 243.638 398.526 236.984 403.4 232.39C405.802 230.126 408.678 228.377 411.774 227.235C413.521 226.591 421.888 225.96 421.888 225.96C421.888 225.96 420.913 232.346 419.247 235.563C415.361 243.066 407.676 249.373 395.667 250.335Z" fill="#8EBCA2"/>
<path d="M420.279 269.394C423.304 265.684 427.676 263.097 432.383 262.233C437.091 261.368 442.097 262.232 446.243 264.626C446.377 264.703 446.523 264.799 446.56 264.95C446.603 265.13 446.474 265.301 446.35 265.439C442.461 269.794 436.433 272.141 430.623 271.562C428.072 271.307 422.717 270.187 420.279 269.394Z" fill="#A2CCB6"/>
<path d="M427.002 259.208C427.008 253.368 428.95 248.126 432.378 244.696C435.806 241.265 440.693 239.674 445.907 240.289C446.076 240.309 446.267 240.343 446.404 240.499C446.566 240.684 446.575 240.948 446.565 241.171C446.268 248.202 442.742 254.023 437.366 256.36C435.004 257.386 429.641 258.862 427.002 259.208Z" fill="#8EBCA2"/>
<path d="M436.067 248.763C438.381 245.037 441.195 241.622 444.412 238.64C445.705 237.441 447.074 236.303 448.628 235.469C453.658 232.767 459.863 233.604 465.272 235.433C463.121 239.519 460.316 243.517 456.189 245.588C454.364 246.504 452.36 247.001 450.367 247.444C446.409 248.325 440.088 248.239 436.067 248.763Z" fill="#A2CCB6"/>
<path d="M433.192 239.01C423.128 233.739 421.642 222.744 421.388 218.678C421.228 216.13 421.395 213.297 423.518 211.462C435.987 215.851 439.17 224.292 433.192 239.01Z" fill="#8EBCA2"/>
<path d="M389.829 237.425C390.61 232.069 391.331 226.317 388.895 221.484C388.022 219.752 386.778 218.23 385.427 216.839C382.154 213.47 377.873 210.685 373.176 210.677C372.331 215.694 373.351 221.002 375.993 225.35C378.634 229.698 382.877 233.048 387.719 234.609" fill="#8EBCA2"/>
<path d="M419.093 272.447C413.483 270.572 408.717 266.301 406.24 260.929C403.762 255.557 403.61 249.16 405.827 243.674C405.926 243.432 406.056 243.164 406.306 243.083C406.543 243.007 406.794 243.132 407.01 243.256C415.69 248.245 421.629 262.761 419.093 272.447Z" fill="#A2CCB6"/>
<path d="M395.507 242.872C393.886 238.189 393.972 232.936 395.745 228.308C397.519 223.68 400.964 219.714 405.299 217.312C407.064 216.334 408.987 215.596 410.553 214.322C411.084 216.675 411.441 219.067 411.62 221.473C411.798 223.852 411.796 226.28 411.164 228.581C409.532 234.529 404.05 238.571 398.543 241.348" fill="#A2CCB6"/>
<path d="M388.235 241.97C379.198 243.065 368.07 239.418 363.24 230.905C378.692 223.051 388.235 235.066 388.235 241.97Z" fill="#A2CCB6"/>
<path d="M393.508 262.134C391.482 255.194 386.149 249.502 379.725 247.422C373.301 245.342 365.968 246.934 360.774 251.536C360.558 251.727 360.326 251.971 360.346 252.273C360.358 252.452 360.46 252.608 360.559 252.752C364.012 257.746 369.523 260.694 375.158 261.937C380.794 263.181 386.612 262.883 392.349 262.454" fill="#A2CCB6"/>
<path d="M381.888 225.129C386.576 229.812 389.499 235.754 391.683 241.939C393.943 248.341 395.593 254.972 396.907 261.628C399.681 275.667 400.416 289.877 402.03 304.06C402.053 304.261 402.363 304.272 402.353 304.06C401.735 289.618 400.183 274.959 397.305 260.788C395.901 253.87 394.133 246.955 391.609 240.354C389.429 234.653 386.502 229.216 382.041 224.975C381.94 224.879 381.789 225.03 381.888 225.129Z" fill="#597F6E"/>
<path d="M398.509 267.956C395.041 262.337 389.285 259.016 383.313 256.589C376.635 253.874 369.06 252.171 361.818 252.659C361.641 252.671 361.639 252.928 361.818 252.935C374.997 253.523 390.079 256.715 398.188 268.143C398.325 268.333 398.636 268.162 398.509 267.956Z" fill="#597F6E"/>
<path d="M395.774 254.763C395.717 249.468 395.162 244.162 396.206 238.919C397.176 234.047 399.12 229.634 402.034 225.618C402.118 225.502 401.93 225.359 401.836 225.465C394.762 233.419 394.68 244.791 395.604 254.763C395.614 254.871 395.775 254.875 395.774 254.763Z" fill="#597F6E"/>
<path d="M374.802 233.811C378.669 234.292 382.086 236.89 385.009 239.29C387.921 241.681 390.521 244.429 393.423 246.825C393.54 246.922 393.705 246.767 393.593 246.655C390.667 243.728 387.527 240.893 384.253 238.361C381.503 236.234 378.362 234.062 374.802 233.735C374.753 233.73 374.754 233.805 374.802 233.811Z" fill="#597F6E"/>
<path d="M415.575 285.686C417.692 274.688 422.118 264.624 429.458 256.081C432.996 251.963 437.07 248.301 441.564 245.251C446.278 242.052 451.31 239.873 456.616 237.871C456.832 237.79 456.751 237.46 456.519 237.52C445.846 240.299 436.012 247.675 428.968 255.976C421.94 264.258 416.607 274.775 415.298 285.649C415.279 285.806 415.545 285.842 415.575 285.686Z" fill="#597F6E"/>
<path d="M427.797 219.977C433.086 231.108 435.043 243.729 429.689 255.182C429.583 255.409 429.897 255.602 430.029 255.381C436.455 244.684 433.34 230.287 428.065 219.819C427.975 219.64 427.712 219.798 427.797 219.977Z" fill="#597F6E"/>
<path d="M434.679 278.381V287.191C434.679 322.125 425.482 332.063 425.482 332.063H397C397 332.063 387.803 322.126 387.803 287.191V278.381H434.679Z" fill="#F2F5F9"/>
<path d="M128.856 332.062L153.008 216.263" stroke="#544943" stroke-width="1.128" stroke-miterlimit="10"/>
<path d="M177.159 332.062L153.008 216.263" stroke="#544943" stroke-width="1.128" stroke-miterlimit="10"/>
<path d="M372.785 332.062L396.936 216.263" stroke="#544943" stroke-width="1.128" stroke-miterlimit="10"/>
<path d="M421.089 332.062L396.938 216.263" stroke="#544943" stroke-width="1.128" stroke-miterlimit="10"/>
<path d="M418.123 209.335H129.638V216.263H418.123V209.335Z" fill="#E7EAF2"/>
<path d="M404.218 196.129H302.272C300.453 196.129 299.076 194.486 299.395 192.695L311.109 126.81C311.479 124.723 313.294 123.202 315.414 123.202H417.359C419.178 123.202 420.555 124.846 420.237 126.637L408.523 192.522C408.152 194.609 406.337 196.129 404.218 196.129Z" fill="#475577"/>
<path d="M406.587 196.129H304.641C302.822 196.129 301.445 194.486 301.764 192.695L313.478 126.81C313.848 124.723 315.663 123.202 317.783 123.202H419.728C421.547 123.202 422.924 124.846 422.605 126.637L410.892 192.522C410.521 194.609 408.707 196.129 406.587 196.129Z" fill="#C0CCD8"/>
<path opacity="0.45" d="M387.829 196.129H328.948C327.898 196.129 327.103 195.18 327.286 194.145L334.051 156.092C334.266 154.886 335.314 154.008 336.538 154.008H395.419C396.469 154.008 397.265 154.957 397.081 155.992L390.316 194.045C390.101 195.251 389.053 196.129 387.829 196.129Z" fill="#8E9DB2"/>
<path d="M389.241 196.129H330.36C329.31 196.129 328.514 195.18 328.698 194.145L335.464 156.092C335.679 154.886 336.727 154.008 337.951 154.008H396.832C397.883 154.008 398.678 154.957 398.494 155.992L391.728 194.045C391.514 195.251 390.466 196.129 389.241 196.129Z" fill="#C6D2E0"/>
<path d="M376.188 173.749H352.292V196.129H376.188V173.749Z" fill="#8E9DB2"/>
<path d="M374.82 173.749H352.292V180.178L358.443 205.701H382.353L374.82 173.749ZM369.036 198.891C366.358 198.891 363.527 195.768 362.712 191.915C361.897 188.062 363.407 184.939 366.086 184.939C368.765 184.939 371.595 188.062 372.41 191.915C373.225 195.768 371.715 198.891 369.036 198.891Z" fill="#475577"/>
<path d="M339.113 205.701H392.643V209.336H335.478C335.478 207.328 337.105 205.701 339.113 205.701Z" fill="#475577"/>
<path d="M392.643 205.701H349.848V209.336H392.643V205.701Z" fill="#C0CCD8"/>
<path d="M376.203 173.749H352.292L359.826 205.7H383.736L376.203 173.749ZM370.334 198.891C367.656 198.891 364.825 195.768 364.01 191.915C363.195 188.062 364.705 184.939 367.384 184.939C370.062 184.939 372.893 188.062 373.708 191.915C374.522 195.768 373.012 198.891 370.334 198.891Z" fill="#C0CCD8"/>
<g opacity="0.65">
<path d="M320.366 129.691L318.951 137.655H320.366L321.782 129.691H320.366Z" fill="#8E9DB2"/>
<path d="M324.466 129.691L323.05 137.655H324.466L325.882 129.691H324.466Z" fill="#8E9DB2"/>
<path d="M328.562 129.691L327.146 137.655H328.562L329.979 129.691H328.562Z" fill="#8E9DB2"/>
<path d="M332.661 129.691L331.245 137.655H332.661L334.077 129.691H332.661Z" fill="#8E9DB2"/>
<path d="M336.76 129.691L335.344 137.655H336.76L338.176 129.691H336.76Z" fill="#8E9DB2"/>
</g>
<g opacity="0.65">
<path d="M374.157 129.691L372.741 137.655H374.157L375.573 129.691H374.157Z" fill="#8E9DB2"/>
<path d="M378.464 129.691L377.048 137.655H378.464L379.88 129.691H378.464Z" fill="#8E9DB2"/>
<path d="M382.771 129.691L381.354 137.655H382.771L384.187 129.691H382.771Z" fill="#8E9DB2"/>
<path d="M387.076 129.691L385.66 137.655H387.076L388.492 129.691H387.076Z" fill="#8E9DB2"/>
<path d="M391.383 129.691L389.967 137.655H391.383L392.799 129.691H391.383Z" fill="#8E9DB2"/>
<path d="M395.69 129.691L394.274 137.655H395.69L397.106 129.691H395.69Z" fill="#8E9DB2"/>
<path d="M399.998 129.691L398.582 137.655H399.998L401.414 129.691H399.998Z" fill="#8E9DB2"/>
<path d="M404.305 129.691L402.889 137.655H404.305L405.721 129.691H404.305Z" fill="#8E9DB2"/>
<path d="M408.61 129.691L407.194 137.655H408.61L410.026 129.691H408.61Z" fill="#8E9DB2"/>
<path d="M412.917 129.691L411.501 137.655H412.917L414.333 129.691H412.917Z" fill="#8E9DB2"/>
</g>
<g opacity="0.55">
<path d="M210.898 191.282C210.898 191.282 211.562 191.159 211.834 190.784C212.393 190.008 211.468 189.186 210.865 188.802C210.094 188.309 209.03 188.141 208.656 187.192C208.234 186.121 208.965 184.936 209.848 184.353C210.591 183.861 211.463 183.613 212.297 183.3C213.226 182.951 214.167 182.392 214.713 181.519C215.393 180.432 215.256 179.03 215.345 177.804C215.694 173.004 220.599 170.625 224.734 170.527C226.8 170.478 229.956 171.218 231.33 172.824C231.791 173.362 232.141 174.002 232.273 174.702C232.478 175.785 232.059 176.785 231.354 177.594C230.647 178.407 229.671 178.879 228.896 179.609C228.095 180.364 228.665 181.16 228.482 182.059C228.279 183.06 227.608 183.486 226.739 183.972C224.904 184.994 222.746 185.249 220.75 185.806C220.129 185.979 219.501 186.189 218.999 186.594C218.348 187.118 217.978 187.905 217.484 188.58C216.584 189.808 215.218 190.684 213.727 190.989" fill="url(#paint0_linear_506_15)"/>
</g>
<path d="M222.395 203.363H218.475V201.494H222.395C223.657 201.494 224.685 200.466 224.685 199.203V195.981C224.685 194.718 223.657 193.691 222.395 193.691H218.475V191.822H222.395C224.688 191.822 226.555 193.688 226.555 195.981V199.203C226.554 201.498 224.688 203.363 222.395 203.363Z" fill="#E8EAEF"/>
<path d="M216.809 208.284H210.2C207.657 208.284 205.595 206.222 205.595 203.678V189.172H221.414V203.678C221.414 206.222 219.352 208.284 216.809 208.284Z" fill="#E8EAEF"/>
<path d="M203.034 205.614C203.034 205.614 203.188 209.335 208.97 209.335H218.038C223.82 209.335 223.974 205.614 223.974 205.614H203.034Z" fill="#C6D2E0"/>
<path d="M330.151 207.848H246.469V209.335H330.151V207.848Z" fill="#475577"/>
<path d="M255.327 206.648H249.33V207.848H255.327V206.648Z" fill="#475577"/>
<path d="M264.404 206.648H258.407V207.848H264.404V206.648Z" fill="#475577"/>
<path d="M273.484 206.648H267.486V207.848H273.484V206.648Z" fill="#475577"/>
<path d="M282.56 206.648H276.562V207.848H282.56V206.648Z" fill="#475577"/>
<path d="M291.638 206.648H285.641V207.848H291.638V206.648Z" fill="#475577"/>
<path d="M300.715 206.648H294.718V207.848H300.715V206.648Z" fill="#475577"/>
<path d="M309.792 206.648H303.795V207.848H309.792V206.648Z" fill="#475577"/>
<path d="M318.869 206.648H312.872V207.848H318.869V206.648Z" fill="#475577"/>
<path d="M327.948 206.648H321.951V207.848H327.948V206.648Z" fill="#475577"/>
<path d="M331.246 207.848H247.563V209.335H331.246V207.848Z" fill="#C0CCD8"/>
<path d="M256.422 206.648H250.425V207.848H256.422V206.648Z" fill="#C0CCD8"/>
<path d="M265.499 206.648H259.502V207.848H265.499V206.648Z" fill="#C0CCD8"/>
<path d="M274.578 206.648H268.581V207.848H274.578V206.648Z" fill="#C0CCD8"/>
<path d="M283.653 206.648H277.656V207.848H283.653V206.648Z" fill="#C0CCD8"/>
<path d="M292.733 206.648H286.735V207.848H292.733V206.648Z" fill="#C0CCD8"/>
<path d="M301.81 206.648H295.812V207.848H301.81V206.648Z" fill="#C0CCD8"/>
<path d="M310.888 206.648H304.891V207.848H310.888V206.648Z" fill="#C0CCD8"/>
<path d="M319.965 206.648H313.968V207.848H319.965V206.648Z" fill="#C0CCD8"/>
<path d="M329.043 206.648H323.046V207.848H329.043V206.648Z" fill="#C0CCD8"/>
<path d="M128.489 265.471C129.529 261.343 129.066 256.854 127.207 253.026C125.348 249.196 122.105 246.057 118.218 244.323C116.634 243.616 114.935 243.127 113.501 242.152C113.22 244.205 113.091 246.279 113.116 248.351C113.141 250.4 113.322 252.477 114.032 254.4C115.869 259.369 120.86 262.423 125.778 264.392" fill="#8EBCA2"/>
<path d="M129.091 278.794C129.243 269.179 129.369 258.199 121.804 251.038C121.685 250.925 121.52 251.094 121.625 251.217C125.018 255.16 127.449 259.924 128.171 265.113C128.803 269.65 128.549 274.241 128.92 278.795C128.929 278.902 129.088 278.906 129.091 278.794Z" fill="#597F6E"/>
<path d="M116.799 291.405C116.076 285.698 112.908 280.342 108.255 276.959C105.96 275.292 103.32 274.115 100.558 273.479C98.9999 273.121 91.8018 273.495 91.8018 273.495C91.8018 273.495 93.3283 278.83 95.0985 281.389C99.227 287.359 106.462 291.895 116.799 291.405Z" fill="#8EBCA2"/>
<path d="M110.505 273.025C110.317 269.57 109.683 266.143 108.621 262.863C108.195 261.544 107.694 260.238 106.961 259.074C104.586 255.303 100.138 253.538 95.8587 252.761C95.8061 256.403 96.2227 260.231 98.2245 263.225C99.1096 264.549 100.267 265.649 101.436 266.71C103.759 268.815 108.011 271.143 110.505 273.025Z" fill="#A2CCB6"/>
<path d="M134.796 260.446C134.126 255.846 133.506 250.905 135.599 246.754C136.348 245.266 137.417 243.959 138.578 242.764C141.389 239.87 145.067 237.478 149.101 237.472C149.826 241.781 148.951 246.341 146.682 250.075C144.412 253.81 138.955 259.105 134.796 260.446Z" fill="#A2CCB6"/>
<path d="M127.405 287.173C131.683 288.06 136.312 287.102 139.888 284.592C143.463 282.082 145.937 278.055 146.557 273.73C146.584 273.539 146.601 273.32 146.471 273.175C146.348 273.038 146.142 273.025 145.958 273.024C138.563 272.987 129.382 280.049 127.405 287.173Z" fill="#A2CCB6"/>
<path d="M112.192 270.54C118.283 267.111 122.198 260.242 122.313 252.776C117.916 252.532 114.605 255.238 112.689 257.57C110.023 260.818 109.798 266.525 112.192 270.54Z" fill="#A2CCB6"/>
<path d="M116.619 282.589C114.992 278.536 115.503 273.692 117.941 270.068C120.379 266.444 124.673 264.145 129.04 264.125C129.221 264.124 129.431 264.141 129.537 264.289C129.599 264.377 129.607 264.491 129.612 264.599C129.779 268.341 128.133 271.989 125.773 274.898C123.413 277.808 120.374 280.079 117.325 282.256" fill="#A2CCB6"/>
<path d="M141.473 249.742C133.356 257.453 130.515 269.814 128.359 280.378C125.869 292.581 124.474 305.241 124.013 317.684C124.005 317.897 124.312 317.885 124.336 317.684C125.794 305.502 126.369 293.286 128.757 281.218C130.888 270.451 133.623 257.951 141.626 249.896C141.725 249.796 141.574 249.646 141.473 249.742Z" fill="#597F6E"/>
<path d="M116.614 289.033C116.484 285.38 117.106 282.084 117.93 278.548C117.964 278.402 117.752 278.297 117.677 278.442C116.147 281.392 115.705 285.833 116.25 289.082C116.285 289.289 116.621 289.24 116.614 289.033Z" fill="#597F6E"/>
<path d="M117.12 257.937C112.251 262.35 111.008 271.601 112.996 277.594C113.045 277.741 113.263 277.682 113.229 277.53C111.789 271.271 112.262 262.769 117.174 257.991C117.21 257.956 117.156 257.904 117.12 257.937Z" fill="#597F6E"/>
<path d="M118.893 310.227C119.159 301.742 117.76 292.842 115.424 284.706C113.12 276.68 109.433 267.977 103.306 262.089C103.133 261.922 102.904 262.168 103.049 262.346C105.78 265.725 108.319 269.064 110.325 272.939C112.374 276.897 113.947 281.088 115.155 285.374C117.457 293.549 118.106 301.797 118.611 310.226C118.622 310.408 118.888 310.41 118.893 310.227Z" fill="#597F6E"/>
<path d="M143.775 295.444V301.454C143.775 325.284 135.874 332.062 135.874 332.062H111.409C111.409 332.062 103.509 325.284 103.509 301.454V295.444H143.775Z" fill="#F2F5F9"/>
<path d="M90.0723 332.062H473.928" stroke="#475577" stroke-width="1.504" stroke-miterlimit="10"/>
</g>
<defs>
<linearGradient id="paint0_linear_506_15" x1="220.429" y1="191.282" x2="220.429" y2="170.523" gradientUnits="userSpaceOnUse">
<stop stop-color="white" stop-opacity="0.1"/>
<stop offset="1" stop-color="white" stop-opacity="0.4"/>
</linearGradient>
<clipPath id="clip0_506_15">
<rect width="564" height="376" fill="white"/>
</clipPath>
</defs>
</svg>
